<svg xmlns="http://www.w3.org/2000/svg" viewBox="0 0 500 500"><g id="freepik--background-complete--inject-2"><rect x="416.78" y="398.49" width="33.12" height="0.25" style="fill:#ebebeb"></rect><rect x="322.53" y="401.21" width="8.69" height="0.25" style="fill:#ebebeb"></rect><rect x="396.59" y="389.21" width="19.19" height="0.25" style="fill:#ebebeb"></rect><rect x="52.46" y="390.89" width="43.19" height="0.25" style="fill:#ebebeb"></rect><rect x="104.56" y="390.89" width="6.33" height="0.25" style="fill:#ebebeb"></rect><rect x="131.47" y="395.11" width="93.68" height="0.25" style="fill:#ebebeb"></rect><path d="M238.4,337.8H45.3a5.71,5.71,0,0,1-5.71-5.71V60.66A5.71,5.71,0,0,1,45.3,55H238.4a5.71,5.71,0,0,1,5.71,5.71V332.09A5.71,5.71,0,0,1,238.4,337.8ZM45.3,55.2a5.47,5.47,0,0,0-5.46,5.46V332.09a5.47,5.47,0,0,0,5.46,5.46H238.4a5.47,5.47,0,0,0,5.46-5.46V60.66a5.47,5.47,0,0,0-5.46-5.46Z" style="fill:#ebebeb"></path><path d="M454.7,337.8H261.6a5.71,5.71,0,0,1-5.71-5.71V60.66A5.71,5.71,0,0,1,261.6,55H454.7a5.71,5.71,0,0,1,5.71,5.71V332.09A5.71,5.71,0,0,1,454.7,337.8ZM261.6,55.2a5.47,5.47,0,0,0-5.46,5.46V332.09a5.47,5.47,0,0,0,5.46,5.46H454.7a5.47,5.47,0,0,0,5.46-5.46V60.66a5.47,5.47,0,0,0-5.46-5.46Z" style="fill:#ebebeb"></path><rect y="382.4" width="500" height="0.25" style="fill:#ebebeb"></rect><polygon points="130.68 118.44 137.97 113.76 141.95 121.46 150.61 121.06 150.21 129.72 157.91 133.7 153.23 140.99 157.91 148.29 150.21 152.27 150.61 160.93 141.95 160.53 137.97 168.23 130.68 163.55 123.38 168.23 119.4 160.53 110.74 160.93 111.14 152.27 103.44 148.29 108.12 140.99 103.44 133.7 111.14 129.72 110.74 121.06 119.4 121.46 123.38 113.76 130.68 118.44" style="fill:#e6e6e6"></polygon><path d="M127.91,152.13l-8.67-8.67a2.54,2.54,0,0,1,0-3.59h0a2.54,2.54,0,0,1,3.59,0l5.08,5.08,10.61-10.61a2.54,2.54,0,0,1,3.59,0h0a2.54,2.54,0,0,1,0,3.59Z" style="fill:#fafafa"></path><polygon points="401.86 194.98 407.58 191.31 410.7 197.35 417.5 197.03 417.18 203.82 423.22 206.94 419.55 212.67 423.22 218.39 417.18 221.51 417.5 228.3 410.7 227.99 407.58 234.03 401.86 230.36 396.14 234.03 393.02 227.99 386.23 228.3 386.54 221.51 380.5 218.39 384.17 212.67 380.5 206.94 386.54 203.82 386.23 197.03 393.02 197.35 396.14 191.31 401.86 194.98" style="fill:#e6e6e6"></polygon><path d="M399.69,221.4l-6.8-6.8a2,2,0,0,1,0-2.81h0a2,2,0,0,1,2.82,0l4,4,8.32-8.32a2,2,0,0,1,2.82,0h0a2,2,0,0,1,0,2.82Z" style="fill:#fafafa"></path><path d="M131.41,291l11.15,5.69a4.75,4.75,0,0,0,5.62-1l8.53-9.16a4.71,4.71,0,0,0,1.2-4l-4.43-25.16a7.57,7.57,0,0,0-8.76-6.13l-14.12,2.49a7.56,7.56,0,0,0-6.13,8.76l4.43,25.15A4.75,4.75,0,0,0,131.41,291Zm12.7-2a2.38,2.38,0,1,1-1.92,2.75A2.38,2.38,0,0,1,144.11,289Z" style="fill:#e6e6e6"></path><rect x="131.59" y="278.94" width="21.91" height="2.37" transform="translate(331.56 531.25) rotate(170)" style="fill:#fafafa"></rect><rect x="127.93" y="258.2" width="21.91" height="2.37" transform="translate(320.7 490.72) rotate(170)" style="fill:#fafafa"></rect><path d="M169.52,128.14l7.68,8.24a4.26,4.26,0,0,0,5.05.89l10-5.12a4.23,4.23,0,0,0,2.26-3.05l4-22.62A6.8,6.8,0,0,0,193,98.61l-12.69-2.24a6.81,6.81,0,0,0-7.88,5.52l-4,22.61A4.23,4.23,0,0,0,169.52,128.14Zm11.33,2.26a2.14,2.14,0,1,1-2.47,1.74A2.14,2.14,0,0,1,180.85,130.4Z" style="fill:#f0f0f0"></path><rect x="172.41" y="121.33" width="19.7" height="2.13" transform="translate(340.51 274.58) rotate(-170)" style="fill:#fafafa"></rect><rect x="175.7" y="102.69" width="19.7" height="2.13" transform="matrix(-0.98, -0.17, 0.17, -0.98, 350.27, 238.14)" style="fill:#fafafa"></rect><path d="M355.38,103.75h0a9.34,9.34,0,0,0-13-2.3l-4,2.77-2.78-4a9.36,9.36,0,0,0-13-2.3h0a9.36,9.36,0,0,0-2.3,13l13.51,19.29,19.3-13.51A9.35,9.35,0,0,0,355.38,103.75Z" style="fill:#ebebeb"></path><path d="M383.12,105.55h0a4.57,4.57,0,0,0-6.38-1.13l-1.94,1.36-1.36-1.94a4.59,4.59,0,0,0-6.38-1.13h0a4.6,4.6,0,0,0-1.12,6.39l6.61,9.44,9.45-6.61A4.57,4.57,0,0,0,383.12,105.55Z" style="fill:#ebebeb"></path><path d="M87.36,197.36A25.33,25.33,0,0,0,70,228.68c2.51,8.73,17.82,23.36,28.24,32.55A8.49,8.49,0,0,0,112,257.29c4-13.31,9.19-33.84,6.69-42.57A25.32,25.32,0,0,0,87.36,197.36Zm10.2,35.57a11.68,11.68,0,1,1,8-14.45A11.68,11.68,0,0,1,97.56,232.93Z" style="fill:#e0e0e0"></path><path d="M91.32,196.23A25.32,25.32,0,0,0,74,227.54c2.51,8.73,17.82,23.37,28.24,32.56a8.49,8.49,0,0,0,13.75-4c4-13.31,9.19-33.83,6.69-42.57A25.31,25.31,0,0,0,91.32,196.23Zm10.2,35.57a11.69,11.69,0,1,1,8-14.46A11.68,11.68,0,0,1,101.52,231.8Z" style="fill:#f5f5f5"></path><path d="M382.91,133a22,22,0,0,0-27.27,15.11c-2.18,7.61,2.37,25.48,5.83,37.07a7.39,7.39,0,0,0,12,3.43c9.08-8,22.41-20.74,24.59-28.34A22,22,0,0,0,382.91,133ZM374,164a10.17,10.17,0,1,1,12.59-7A10.17,10.17,0,0,1,374,164Z" style="fill:#e0e0e0"></path><path d="M386.36,134a22,22,0,0,0-27.27,15.11c-2.18,7.6,2.37,25.48,5.83,37.07a7.39,7.39,0,0,0,12,3.43c9.07-8,22.4-20.74,24.58-28.34A22,22,0,0,0,386.36,134Zm-8.88,31a10.17,10.17,0,1,1,12.58-7A10.18,10.18,0,0,1,377.48,165Z" style="fill:#f5f5f5"></path></g><g id="freepik--Shadow--inject-2"><ellipse id="freepik--path--inject-2" cx="250" cy="415.69" rx="193.89" ry="11.32" style="fill:#f5f5f5"></ellipse></g><g id="freepik--Device--inject-2"><path d="M188.5,187.87h10.7A3.75,3.75,0,0,1,203,192l-2,22.57a4.62,4.62,0,0,1-4.51,4.15H185.8a3.75,3.75,0,0,1-3.79-4.15L184,192A4.62,4.62,0,0,1,188.5,187.87Z" style="fill:#407BFF"></path><path d="M308.2,183.05h16.72a5.85,5.85,0,0,1,5.92,6.48l-2.06,23.57a7.22,7.22,0,0,1-7,6.48H305a5.85,5.85,0,0,1-5.91-6.48l2.06-23.57A7.22,7.22,0,0,1,308.2,183.05Z" style="isolation:isolate;opacity:0.2"></path><path d="M304.77,222.21H321.5a5.85,5.85,0,0,1,5.91,6.48l-2.06,23.57a7.21,7.21,0,0,1-7.05,6.48H301.58a5.85,5.85,0,0,1-5.92-6.48l2.07-23.57A7.21,7.21,0,0,1,304.77,222.21Z" style="isolation:isolate;opacity:0.2"></path><path d="M218.51,138.86h93.16a21.14,21.14,0,0,1,21.39,23.45L313.18,389.48a26.09,26.09,0,0,1-25.49,23.44H194.53a21.14,21.14,0,0,1-21.39-23.44L193,162.31A26.09,26.09,0,0,1,218.51,138.86Z" style="fill:#407BFF"></path><path d="M218.51,138.86h93.16a21.14,21.14,0,0,1,21.39,23.45L313.18,389.48a26.09,26.09,0,0,1-25.49,23.44H194.53a21.14,21.14,0,0,1-21.39-23.44L193,162.31A26.09,26.09,0,0,1,218.51,138.86Z" style="isolation:isolate;opacity:0.2"></path><path d="M215.5,138.86h93.17a21.15,21.15,0,0,1,21.39,23.45L310.18,389.48a26.1,26.1,0,0,1-25.49,23.44H191.53a21.13,21.13,0,0,1-21.39-23.44L190,162.31C191.14,149.36,202.56,138.86,215.5,138.86Z" style="fill:#407BFF"></path><path d="M327.26,162.31,307.39,389.47a23,23,0,0,1-22.46,20.64H191.77a18.61,18.61,0,0,1-18.84-20.64l19.88-227.16a23,23,0,0,1,22.45-20.65h93.16A18.62,18.62,0,0,1,327.26,162.31Z" style="fill:#fff"></path><g style="opacity:0.1"><path d="M191.77,410.11h35.32l57.06-268.45h-45L182.57,407.84A19.43,19.43,0,0,0,191.77,410.11Z"></path><polygon points="305.75 141.66 297.19 141.66 240.12 410.11 248.69 410.11 305.75 141.66"></polygon></g><path d="M234.53,141a6,6,0,0,0,6,6.62h41.5a7.39,7.39,0,0,0,7.19-6.62Z" style="fill:#407BFF"></path><path d="M306.73,149h9.42a1.3,1.3,0,0,1,1.3,1.43l-.36,4.1a1.59,1.59,0,0,1-1.55,1.43h-9.42a1.29,1.29,0,0,1-1.3-1.43l.36-4.1A1.59,1.59,0,0,1,306.73,149Z" style="fill:#407BFF"></path><path d="M206.15,149h12.61a1.46,1.46,0,0,1,1.47,1.61l-.33,3.74a1.79,1.79,0,0,1-1.75,1.61H205.54a1.45,1.45,0,0,1-1.46-1.61l.32-3.74A1.79,1.79,0,0,1,206.15,149Z" style="fill:#407BFF;isolation:isolate"></path><path d="M206.15,149h12.61a1.46,1.46,0,0,1,1.47,1.61l-.33,3.74a1.79,1.79,0,0,1-1.75,1.61H205.54a1.45,1.45,0,0,1-1.46-1.61l.32-3.74A1.79,1.79,0,0,1,206.15,149Z" style="fill:#fff;isolation:isolate;opacity:0.4"></path><path d="M304.22,150.16h1.48a.47.47,0,0,1,.48.52l-.31,3.54a.58.58,0,0,1-.57.52h-1.48a.47.47,0,0,1-.48-.52l.31-3.54A.58.58,0,0,1,304.22,150.16Z" style="fill:#407BFF"></path><path d="M314.28,150.16h1.49a.47.47,0,0,1,.47.52l-.31,3.54a.57.57,0,0,1-.56.52h-1.49a.47.47,0,0,1-.47-.52l.31-3.54A.57.57,0,0,1,314.28,150.16Z" style="fill:#fff"></path><path d="M311.09,150.16h1.49a.47.47,0,0,1,.47.52l-.31,3.54a.57.57,0,0,1-.56.52h-1.49a.47.47,0,0,1-.47-.52l.31-3.54A.57.57,0,0,1,311.09,150.16Z" style="fill:#fff"></path><path d="M327.83,212.94l-2,23.23a4.64,4.64,0,0,0,3.74-4.08L330.85,217A3.72,3.72,0,0,0,327.83,212.94Z" style="fill:#407BFF"></path><path d="M327.83,212.94l-2,23.23a4.64,4.64,0,0,0,3.74-4.08L330.85,217A3.72,3.72,0,0,0,327.83,212.94Z" style="isolation:isolate;opacity:0.2"></path><path d="M330,187.87l-2,23.23a4.62,4.62,0,0,0,3.73-4.07L333,192A3.74,3.74,0,0,0,330,187.87Z" style="fill:#407BFF"></path><path d="M330,187.87l-2,23.23a4.62,4.62,0,0,0,3.73-4.07L333,192A3.74,3.74,0,0,0,330,187.87Z" style="isolation:isolate;opacity:0.2"></path></g><g id="freepik--speech-bubble-2--inject-2"><path d="M405.29,240.88H385.66a6,6,0,0,0-6,6v11.62a6,6,0,0,0,6,5.95h5.61v4.53a1.27,1.27,0,0,0,2.16.89l5.41-5.42h6.45a6,6,0,0,0,5.95-5.95V246.83A6,6,0,0,0,405.29,240.88Z" style="fill:#407BFF"></path><path d="M400.54,246.44h-9.43c-.09-.79-.14-1.18-.23-2h-5.19c.11.45.17.67.28,1.12h3.74c.05.33.08.5.13.84.25,1.65.38,2.47.63,4.12.06.45.1.67.17,1.12.25,1.65.37,2.47.62,4.12.14.89.21,1.33.34,2.21H402c.1-.45.15-.67.26-1.12h-9.85c-.05-.43-.08-.65-.13-1.09h10.71l1-4.12c.11-.45.16-.67.28-1.12.4-1.65.61-2.47,1-4.12Zm-9.29,1.11h3.34c0,1.21.05,1.81.09,3H391.6Zm.85,7.14c-.15-1.21-.22-1.81-.36-3h3c0,1.2.05,1.8.09,3Zm6.41,0H395.8c0-1.21,0-1.81,0-3h3C398.67,252.88,398.62,253.48,398.51,254.69Zm.38-4.13h-3.08c0-1.2,0-1.8,0-3h3.34C399.05,248.76,399,249.36,398.89,250.56Zm3.32,4.13h-2.7c.15-1.21.22-1.81.38-3h3Zm.89-4.13H400c.16-1.2.23-1.8.38-3h3.34C403.48,248.76,403.35,249.36,403.1,250.56Z" style="fill:#fff"></path><path d="M392.24,259.05a1.33,1.33,0,1,0,1.33,1.33A1.33,1.33,0,0,0,392.24,259.05Z" style="fill:#fff"></path><circle cx="401.66" cy="260.38" r="1.32" style="fill:#fff"></circle></g><g id="freepik--speech-bubble-1--inject-2"><path d="M273.51,157.62H242.35a10.51,10.51,0,0,0-10.27,9.44l-1.61,18.45a8.51,8.51,0,0,0,8.61,9.44H248l-.63,7.18a1.89,1.89,0,0,0,3.29,1.41L260,195h10.24a10.52,10.52,0,0,0,10.27-9.44l1.61-18.45A8.51,8.51,0,0,0,273.51,157.62Z" style="fill:#407BFF"></path><path d="M264.19,166.44H249.24l-.1-3.1h-8.23c.11.71.17,1.06.28,1.77h5.94c0,.53.05.8.08,1.33.17,2.62.26,3.93.43,6.55,0,.7.07,1.06.11,1.77.17,2.61.26,3.92.42,6.54.1,1.4.14,2.1.23,3.5h16.42l.57-1.77H249.76l0-1.73h17c.88-2.62,1.32-3.93,2.19-6.54l.59-1.77c.88-2.62,1.32-3.93,2.19-6.55Zm-14.9,1.77h5.3c-.11,1.91-.16,2.86-.27,4.78h-4.88Zm.36,11.32-.15-4.77h4.72c-.11,1.91-.17,2.86-.28,4.77Zm10.17,0h-4.29c.17-1.91.26-2.86.43-4.77h4.72C260.34,176.67,260.17,177.62,259.82,179.53ZM261,173h-4.88c.18-1.92.26-2.87.43-4.78h5.31C261.51,170.12,261.34,171.07,261,173Zm4.7,6.54h-4.29l1-4.77h4.71C266.57,176.67,266.28,177.62,265.7,179.53Zm2-6.54H262.8c.41-1.92.61-2.87,1-4.78h5.3C268.54,170.12,268.25,171.07,267.68,173Z" style="fill:#fff"></path><path d="M249.28,186.46a2.34,2.34,0,0,0-2.29,2.1,1.9,1.9,0,0,0,1.92,2.1,2.34,2.34,0,0,0,2.29-2.1A1.9,1.9,0,0,0,249.28,186.46Z" style="fill:#fff"></path><path d="M264.21,186.46a2.33,2.33,0,0,0-2.28,2.1,1.9,1.9,0,0,0,1.92,2.1,2.33,2.33,0,0,0,2.28-2.1A1.9,1.9,0,0,0,264.21,186.46Z" style="fill:#fff"></path></g><g id="freepik--character-2--inject-2"><rect x="260.27" y="288.18" width="35.63" height="35.63" style="fill:#407BFF"></rect><rect x="295.89" y="288.18" width="21.88" height="35.63" style="fill:#407BFF"></rect><polygon points="289.09 279.24 253.46 279.24 260.27 288.18 295.89 288.18 289.09 279.24" style="fill:#407BFF"></polygon><rect x="295.89" y="288.18" width="21.88" height="35.63" style="fill:#fff;opacity:0.30000000000000004"></rect><polygon points="289.09 279.24 253.46 279.24 260.27 288.18 295.89 288.18 289.09 279.24" style="fill:#fff;opacity:0.4"></polygon><polygon points="302.34 279.24 324.22 279.24 317.78 288.18 295.89 288.18 302.34 279.24" style="fill:#407BFF"></polygon><rect x="260.27" y="288.18" width="35.63" height="35.63" style="fill:#fff;opacity:0.6000000000000001"></rect><polygon points="302.34 279.24 324.22 279.24 317.78 288.18 295.89 288.18 302.34 279.24" style="fill:#fff;opacity:0.2"></polygon><rect x="306.35" y="322.93" width="89.8" height="89.8" style="fill:#407BFF"></rect><rect x="306.35" y="322.93" width="89.8" height="89.8" style="fill:#fff;opacity:0.4"></rect><rect x="251.17" y="322.93" width="55.16" height="89.8" style="fill:#407BFF"></rect><rect x="251.17" y="322.93" width="55.16" height="89.8" style="fill:#fff;opacity:0.6000000000000001"></rect><polygon points="268.21 322.93 268.21 347.05 270.4 348.2 272.29 346.63 275.28 348.2 278.12 346.63 280.32 348.2 282.84 346.63 284.27 347.92 284.27 322.93 268.21 322.93" style="fill:#fff;opacity:0.5"></polygon><polygon points="284.27 412.73 284.27 388.61 282.08 387.45 280.19 389.03 277.2 387.45 274.36 389.03 272.16 387.45 269.64 389.03 268.21 387.74 268.21 412.73 284.27 412.73" style="fill:#fff;opacity:0.5"></polygon><path d="M343,359.55c.51,2.05.76,3.08,1.27,5.13.13.55.2.83.34,1.39.51,2.05.76,3.08,1.27,5.13h13.32c-.07.54-.1.81-.16,1.35H346.77c.13.56.19.84.32,1.39H360l.42-2.74c.31-2.05.47-3.08.78-5.13.09-.56.13-.84.21-1.39.31-2.05.47-3.08.78-5.13.07-.42.1-.63.16-1.05H367c.13-.55.2-.83.34-1.38h-6.45c-.12,1-.18,1.45-.29,2.43H343Zm17,5.13h-3.82c0-1.5.06-2.25.11-3.75h4.15C360.22,362.43,360.14,363.18,360,364.68Zm-4,5.13c0-1.5.07-2.25.11-3.74h3.7l-.45,3.74Zm-5-3.74h3.69c0,1.49,0,2.24,0,3.74h-3.37C351.23,368.31,351.16,367.56,351,366.07Zm-.47-5.14h4.15c0,1.5,0,2.25,0,3.75H350.9C350.76,363.18,350.69,362.43,350.56,360.93Zm-4.6,5.14h3.7c.18,1.49.28,2.24.47,3.74h-3.37Zm-1.1-5.14H349c.18,1.5.28,2.25.46,3.75h-3.82Z" style="fill:#fff"></path><circle cx="359.16" cy="376.89" r="1.65" style="fill:#fff"></circle><circle cx="347.45" cy="376.89" r="1.65" style="fill:#fff"></circle><g style="opacity:0.5"><path d="M266.59,359.55c.51,2.05.76,3.08,1.27,5.13.13.55.2.83.34,1.39.51,2.05.76,3.08,1.27,5.13h13.32c-.07.54-.1.81-.16,1.35H270.38c.13.56.19.84.32,1.39h12.87l.42-2.74c.31-2.05.47-3.08.78-5.13.08-.56.13-.84.21-1.39.31-2.05.47-3.08.78-5.13l.16-1.05h4.66c.13-.55.2-.83.34-1.38h-6.45c-.12,1-.18,1.45-.29,2.43H266.59Zm17,5.13h-3.82l.11-3.75H284C283.83,362.43,283.74,363.18,283.57,364.68Zm-4,5.13c.05-1.5.07-2.25.11-3.74h3.7l-.45,3.74Zm-4.95-3.74h3.69c0,1.49,0,2.24,0,3.74H275C274.84,368.31,274.77,367.56,274.64,366.07Zm-.48-5.14h4.16c0,1.5,0,2.25,0,3.75h-3.82Zm-4.59,5.14h3.7l.46,3.74h-3.36Zm-1.1-5.14h4.16c.18,1.5.28,2.25.46,3.75h-3.82Z" style="fill:#fff"></path><circle cx="282.77" cy="376.89" r="1.65" style="fill:#fff"></circle><circle cx="271.06" cy="376.89" r="1.65" style="fill:#fff"></circle></g><path d="M363.36,251.47s3.12,22.39,5.92,26.25,15.38,14.54,15.38,14.54l7.95-1.16,5.33,5-3.86,2.67-4.25-1.9a41.57,41.57,0,0,1-7.22.17c-4.06-.25-19.92-11-22.84-16.61s-6.22-26.38-6.22-26.38Z" style="fill:#ce7a63"></path><path d="M366,257.94l-.8.14c-.55-5.26-2.75-21.24-8.78-17.14-5.79,3.95-4.16,15.16-3.32,19.35l-1,.17.88,2.76,13.33-2.55Z" style="fill:#407BFF"></path><path d="M361,247.37l-1.47-3.16-4.61,4.64-2.65,4a43.9,43.9,0,0,0,.86,7.45l-1,.17.88,2.76,7.52-1.44A51.09,51.09,0,0,0,361,247.37Z" style="opacity:0.2"></path><path d="M361.46,207.19s15.9,3.44,7.45,11l-7-6.11Z" style="fill:#263238"></path><polygon points="383.53 375.08 373.41 399.87 366.39 397.14 372.05 372.5 383.53 375.08" style="fill:#ce7a63"></polygon><polygon points="372.55 370.75 368.56 388.12 377.21 390.05 384.03 373.32 372.55 370.75" style="isolation:isolate;opacity:0.2"></polygon><path d="M375,399.29c1.29,2.93,2.16,5.34,7.44,8.47,1.15.66-.8,3.7-3.67,2.41-4.74-2.14-3.5-2.18-7.56-3.94-3.41-1.51-5.95-2.42-8.73-3.58a.82.82,0,0,1-.2-.12h0a1.12,1.12,0,0,1-.23-1.56l4.1-5.61a.67.67,0,0,1,.82-.22l6.64,2.86A2.69,2.69,0,0,1,375,399.29Z" style="fill:#263238"></path><path d="M406.18,316.82c-1.29,16-24.27,68.89-24.27,68.89l-13.64-3.8s10.42-50.81,17.22-59.22c0,0-2.22,0-5.79.07-12.43.11-41.24.09-49.55-2.12-5.93-1.58-18.32-4.75-15-24.59l15.36-.53,17.89-.62S408,295,406.18,316.82Z" style="fill:#263238"></path><path d="M379.7,322.76c-12.43.11-41.24.09-49.55-2.12-5.93-1.58-18.32-4.75-15-24.59l15.36-.53c12.09,1.43,27.89,3.82,38.66,8.45,5.24,2.25,8.88,6.31,9.95,11.09A56.66,56.66,0,0,1,379.7,322.76Z" style="isolation:isolate;opacity:0.2"></path><polygon points="359.81 374.2 354.75 399.47 347.14 399.12 348.04 373.85 359.81 374.2" style="fill:#ce7a63"></polygon><polygon points="359.81 374.2 348.04 373.85 347.52 388.96 356.79 389.29 359.81 374.2" style="isolation:isolate;opacity:0.2"></polygon><path d="M355.91,400.07c1.24,3,2,5.52,7.33,8.86,1.14.74-.94,3.79-3.81,2.37-4.76-2.33-3.49-2.32-7.58-4.25-3.45-1.63-6-2.64-8.79-3.91l-.21-.1h0a1.13,1.13,0,0,1-.19-1.6l4.35-5.61a.67.67,0,0,1,.83-.2l6.66,3.11A2.69,2.69,0,0,1,355.91,400.07Z" style="fill:#263238"></path><path d="M306.17,296s-4.35,15.63,2.84,21.8c10.05,8.63,46.36,6,46.36,6-6.27,20.07-9.07,59.94-9.07,59.94h13.61s18.54-54.54,15.8-68.64-51.38-19.09-51.38-19.09Z" style="fill:#263238"></path><polygon points="367.06 383.49 382.5 387.38 385.65 380.77 368.69 375.96 367.06 383.49" style="fill:#407BFF"></polygon><polygon points="344.95 385.68 360.7 386.49 362.33 379.56 344.95 378.75 344.95 385.68" style="fill:#407BFF"></polygon><path d="M352.17,274.39c4-11.79,9-20.76,9.58-30.81-13.69-19.76-40.46-8.08-40.46-8.08C305.09,265.9,306.17,296,306.17,296c36.81,0,38.92-.63,38.92-.63S345.22,290.2,352.17,274.39Z" style="fill:#407BFF"></path><path d="M339.81,234.92c.59,3.48,1.82,9.76,3.28,10.67,2,1.22,5-.49,5-.49s2.43,3.29,5,1.1a13.81,13.81,0,0,0,3.3-4.92,14.2,14.2,0,0,1-2.83,3.44c-2.6,2.18-5-1.1-5-1.1s-3,1.7-5,.49C342.24,243.32,340.7,238.35,339.81,234.92Z" style="isolation:isolate;opacity:0.2"></path><polygon points="343.11 230.12 346.76 231.37 343.9 233.88 343.11 230.12" style="fill:#407BFF"></polygon><polygon points="343.11 230.12 346.76 231.37 343.9 233.88 343.11 230.12" style="opacity:0.2"></polygon><path d="M354.71,233.88l1,3s-5.22,5.46-6.72,5.52-5.9-10.27-5.9-10.27c5.81-2.63,5.27-5.52,5.27-5.52Z" style="fill:#ce7a63"></path><path d="M352.81,239.67c1.54-1.41,2.92-2.84,2.92-2.84l-1-3-5.65-6.53C348.34,230.19,347.62,236.13,352.81,239.67Z" style="isolation:isolate;opacity:0.2"></path><path d="M357.69,239a17.15,17.15,0,0,1-4.08,5.81c-2.61,2.18-5-1.09-5-1.09s-3,1.69-5,.48S339,231.89,339,231.89l4.11-1.77,5.66,12,7.63-6.31Z" style="fill:#407BFF"></path><path d="M348.16,216.47a10.12,10.12,0,0,1,15.13-8.84c7.26,3.91,7.46,15.33,5.3,22A10,10,0,0,1,351.18,233c-3.56-4.38-3.1-8.87-3-16.58Z" style="fill:#ce7a63"></path><path d="M361.68,221.25c.42,0,.68.61.57,1.22s-.48,1-.89,1-.67-.61-.57-1.22S361.26,221.22,361.68,221.25Z" style="fill:#263238"></path><path d="M368.61,222.55c.43,0,.69.59.59,1.21s-.49,1-.91,1-.66-.6-.57-1.22S368.19,222.5,368.61,222.55Z" style="fill:#263238"></path><path d="M359.82,219.79a2.84,2.84,0,0,1,2.56-.47h0a.36.36,0,0,0,.45-.22h0a.39.39,0,0,0-.22-.47,3.59,3.59,0,0,0-3.28.64h0a.32.32,0,0,0,.11.58A.32.32,0,0,0,359.82,219.79Z" style="fill:#263238"></path><path d="M370.36,221.74h0a.37.37,0,0,0,.12-.5,3.73,3.73,0,0,0-2.79-1.89h0a.35.35,0,0,0-.33.27h0a.36.36,0,0,0,.27.44,3.08,3.08,0,0,1,2.24,1.57.35.35,0,0,0,.28.19A.4.4,0,0,0,370.36,221.74Z" style="fill:#263238"></path><path d="M364.5,229.37a3.62,3.62,0,0,0,3,0,24.07,24.07,0,0,1-2-5.88Z" style="fill:#ba4d3c"></path><path d="M347.68,221.46c-3-10.9,1.85-13.74,7.09-15.7s8.15-.08,9.82,1.76c.52.58,1.56,2.32-1.8,2.55a26.33,26.33,0,0,1-6.07-.47,2.21,2.21,0,0,0-2.14.84c-1.16,1.52-3,4.36-3,6.84a6.48,6.48,0,0,1-1.94,5.12Z" style="fill:#263238"></path><path d="M343.9,276.24h0a1.32,1.32,0,1,1-1.33,1.31A1.31,1.31,0,0,1,343.91,276.24Z" style="fill:#407BFF"></path><path d="M341,290.2h0a1.32,1.32,0,1,1,0,2.64,1.33,1.33,0,0,1-1.32-1.33A1.31,1.31,0,0,1,341,290.2Z" style="fill:#407BFF"></path><path d="M347.76,219c2.12.38,3.14,3.37,3.16,5.33s-1.5,3.69-3.37,2.44a6.88,6.88,0,0,1-2.8-4.14C344.34,220.52,345.65,218.58,347.76,219Z" style="fill:#ce7a63"></path><path d="M357.44,229.26a37.38,37.38,0,0,1,6.66,2.59,4.19,4.19,0,0,1-5.24.72A2.45,2.45,0,0,1,357.44,229.26Z" style="fill:#263238"></path><path d="M360.51,232a4.91,4.91,0,0,0-3-.53,2.92,2.92,0,0,0,1.33,1.14,4.88,4.88,0,0,0,3,.53A2.77,2.77,0,0,0,360.51,232Z" style="fill:#a02724"></path><path d="M357.68,229.32a1.07,1.07,0,0,0,.42,1.05,27.2,27.2,0,0,0,4.39,1.59,1.47,1.47,0,0,0,1.4-.2A42.91,42.91,0,0,0,357.68,229.32Z" style="fill:#fff"></path><rect x="365.32" y="299.85" width="18.1" height="2.91" transform="translate(747.13 604.6) rotate(-179.69)" style="fill:#263238"></rect><path d="M342.43,299.74h23a1.36,1.36,0,0,1,1.36,1.36v1.54a0,0,0,0,1,0,0H342.43a0,0,0,0,1,0,0v-2.91A0,0,0,0,1,342.43,299.74Z" transform="translate(707.63 604.28) rotate(-179.69)" style="fill:#263238"></path><path d="M342.43,299.74h23a1.36,1.36,0,0,1,1.36,1.36v1.54a0,0,0,0,1,0,0H342.43a0,0,0,0,1,0,0v-2.91A0,0,0,0,1,342.43,299.74Z" transform="translate(707.63 604.28) rotate(-179.69)" style="fill:#fff;opacity:0.30000000000000004"></path><rect x="360.25" y="300.72" width="2.91" height="1.03" transform="translate(721.8 604.4) rotate(-179.69)" style="fill:#263238"></rect><rect x="355.72" y="300.69" width="2.91" height="1.03" transform="translate(712.73 604.34) rotate(-179.69)" style="fill:#263238"></rect><polygon points="370.28 299.82 368.35 299.81 376.05 273.59 377.98 273.6 370.28 299.82" style="fill:#263238"></polygon><polygon points="370.28 299.82 368.35 299.81 376.05 273.59 377.98 273.6 370.28 299.82" style="fill:#fff;opacity:0.30000000000000004"></polygon><polygon points="369.57 299.82 403.54 300 411.24 273.77 377.27 273.59 369.57 299.82" style="fill:#263238"></polygon><polygon points="369.57 299.82 403.54 300 411.24 273.77 377.27 273.59 369.57 299.82" style="fill:#fff;opacity:0.6000000000000001"></polygon><path d="M367.91,299.81l35.36.19c.59,0,1.07.66,1.07,1.46s-.49,1.45-1.09,1.45l-35.36-.19c-.59,0-1.07-.66-1.07-1.46S367.31,299.81,367.91,299.81Z" style="fill:#263238"></path><path d="M367.91,299.81l35.36.19c.59,0,1.07.66,1.07,1.46s-.49,1.45-1.09,1.45l-35.36-.19c-.59,0-1.07-.66-1.07-1.46S367.31,299.81,367.91,299.81Z" style="fill:#fff;opacity:0.5"></path><path d="M366.82,301.26c0,.8.48,1.45,1.07,1.46s1.08-.65,1.09-1.45-.48-1.46-1.07-1.46S366.83,300.46,366.82,301.26Z" style="fill:#263238"></path><path d="M366.82,301.26c0,.8.48,1.45,1.07,1.46s1.08-.65,1.09-1.45-.48-1.46-1.07-1.46S366.83,300.46,366.82,301.26Z" style="fill:#fff;opacity:0.30000000000000004"></path><path d="M333.43,275.53c-1.63-2.24-3.36-10.54-4.57-17.4l1.57-.3-.37-2.84-.82.15c-.57-5.36-2.79-21.48-8.8-18-1.75,3.4-3.29,6.82-4.63,10.2a42.07,42.07,0,0,0,.86,10.07l-1,.18.92,2.87,2.13-.4c1.27,6.62,3.12,15,4.84,18.32,2.26,4.36,12,11.64,18.52,15.18,7.33-1.3,9-2.22,9-2.22a3.86,3.86,0,0,1-.51-.9l-1.18.17S336.34,279.54,333.43,275.53Z" style="opacity:0.2"></path><path d="M331.64,248.38s2.14,23.37,4.86,27.51,15.25,15.84,15.25,15.84l8.3-.82,5.28,5.49L361.2,299l-4.32-2.19a42.44,42.44,0,0,1-7.5-.17c-4.19-.46-20.12-12.34-22.88-18.34s-5.17-27.67-5.17-27.67Z" style="fill:#ce7a63"></path><path d="M333.5,253.42l-.83.15c-.57-5.46-2.86-22.06-9.11-17.8-6,4.1-4.33,15.74-3.45,20.09l-1,.18.92,2.87,13.84-2.65Z" style="fill:#407BFF"></path></g><g id="freepik--Bags--inject-2"><path d="M131.22,333.56l-2.39-.13.56-10.84a14.28,14.28,0,0,1,14.08-13.37,12.7,12.7,0,0,1,12.8,13.5l-.57,10.84-2.39-.13.57-10.84a10.31,10.31,0,0,0-10.41-11,11.85,11.85,0,0,0-11.68,11.11Z" style="fill:#263238"></path><polygon points="182.49 328.74 111.82 328.74 109.42 412.59 119.9 410.19 130.38 412.59 184.89 412.59 182.49 328.74" style="fill:#407BFF"></polygon><polygon points="182.49 328.74 111.82 328.74 109.42 412.59 119.9 410.19 130.38 412.59 184.89 412.59 182.49 328.74" style="fill:#fff;opacity:0.6000000000000001"></polygon><polygon points="130.38 412.59 119.9 410.19 109.42 412.59 111.82 328.74 127.99 328.74 130.38 412.59" style="fill:#407BFF"></polygon><polygon points="130.38 412.59 119.9 410.19 109.42 412.59 111.82 328.74 127.99 328.74 130.38 412.59" style="fill:#fff;opacity:0.30000000000000004"></polygon><path d="M167.53,333.56,167,322.72a11.85,11.85,0,0,0-11.69-11.11,10.31,10.31,0,0,0-10.4,11l.57,10.84-2.39.13-.57-10.84a12.69,12.69,0,0,1,12.79-13.5,14.27,14.27,0,0,1,14.08,13.37l.57,10.84Z" style="fill:#263238"></path><g style="opacity:0.2"><path d="M167.53,333.56,167,322.72a11.85,11.85,0,0,0-11.69-11.11,10.31,10.31,0,0,0-10.4,11l.57,10.84-2.39.13-.57-10.84a12.69,12.69,0,0,1,12.79-13.5,14.27,14.27,0,0,1,14.08,13.37l.57,10.84Z" style="fill:#fff"></path></g><rect x="138.74" y="359.36" width="35.54" height="7.99" rx="1.34" style="fill:#fff"></rect><path d="M98.74,359.61l-1.61-.09.38-7.26a9.57,9.57,0,0,1,9.44-9,8.51,8.51,0,0,1,8.58,9l-.38,7.27-1.6-.09.38-7.26a6.92,6.92,0,0,0-7-7.36,7.94,7.94,0,0,0-7.83,7.44Z" style="fill:#263238"></path><polygon points="133.11 356.38 85.73 356.38 84.13 412.59 91.15 410.98 98.18 412.59 134.72 412.59 133.11 356.38" style="fill:#407BFF"></polygon><polygon points="98.18 412.59 91.15 410.98 84.13 412.59 85.73 356.38 96.57 356.38 98.18 412.59" style="fill:#407BFF"></polygon><polygon points="98.18 412.59 91.15 410.98 84.13 412.59 85.73 356.38 96.57 356.38 98.18 412.59" style="opacity:0.2"></polygon><path d="M123.08,359.61l-.38-7.27a8,8,0,0,0-7.84-7.44,6.9,6.9,0,0,0-7,7.36l.38,7.26-1.6.09-.39-7.27a8.52,8.52,0,0,1,8.58-9,9.57,9.57,0,0,1,9.44,9l.38,7.26Z" style="fill:#263238"></path><g style="opacity:0.2"><path d="M123.08,359.61l-.38-7.27a8,8,0,0,0-7.84-7.44,6.9,6.9,0,0,0-7,7.36l.38,7.26-1.6.09-.39-7.27a8.52,8.52,0,0,1,8.58-9,9.57,9.57,0,0,1,9.44,9l.38,7.26Z" style="fill:#fff"></path></g><rect x="103.78" y="376.91" width="23.82" height="5.35" rx="1.34" style="fill:#fff"></rect></g><g id="freepik--character-1--inject-2"><polygon points="171.68 407.1 164.07 406.31 164.45 388.53 172.06 389.32 171.68 407.1" style="fill:#b55b52"></polygon><polygon points="236.06 381.6 229.25 385.07 219.01 370.39 225.83 366.92 236.06 381.6" style="fill:#b55b52"></polygon><path d="M227.83,384.12l7-5a.61.61,0,0,1,.8.07l4.74,5a1.23,1.23,0,0,1-.2,1.82c-2.47,1.7-3.75,2.39-6.83,4.59-1.89,1.35-4.52,3.52-7.13,5.38s-4.6-.62-3.68-1.63c4.13-4.53,3.87-6.53,4.53-9.08A2,2,0,0,1,227.83,384.12Z" style="fill:#263238"></path><path d="M163.42,405.35l8.55.89a.6.6,0,0,1,.55.58l.27,6.87a1.23,1.23,0,0,1-1.36,1.23c-3-.37-4.39-.69-8.15-1.08-2.32-.25-9-.7-12.18-1s-3-3.51-1.67-3.66c6.09-.66,10.49-2,12.67-3.47A2,2,0,0,1,163.42,405.35Z" style="fill:#263238"></path><g style="opacity:0.2"><polygon points="164.45 388.53 164.25 397.7 171.87 398.49 172.06 389.33 164.45 388.53"></polygon><polygon points="225.83 366.93 219.01 370.4 224.29 377.96 231.11 374.49 225.83 366.93"></polygon></g><path d="M168.09,234.93S160.2,293.66,160,317c-.24,24.28,2.84,78.78,2.84,78.78l10.29,1.07s4.18-53.6,5.84-77.39c1.82-25.95,11.9-83.8,11.9-83.8Z" style="fill:#263238"></path><polygon points="173.95 397.3 161.87 396.04 161.39 392.1 174.96 393.04 173.95 397.3" style="fill:#407BFF"></polygon><path d="M181,250c-8.12,15.11-2.9,43.3-.53,53.8,1.87-15.6,4.81-34.65,7.07-48.63C186.66,247.19,184.77,243.05,181,250Z" style="opacity:0.6000000000000001"></path><path d="M176.29,235.19s5.11,61.47,9.8,81.3c5.57,23.55,35.75,60.73,35.75,60.73l9.3-4.73s-20.45-41.32-24.88-53.78c-9.47-26.57.58-65.41-7.11-82.8Z" style="fill:#263238"></path><polygon points="232.46 372.43 220.92 378.3 217.85 375.3 231.11 367.78 232.46 372.43" style="fill:#407BFF"></polygon><path d="M225.14,387.26h-.09a1,1,0,0,1-.8-.61.61.61,0,0,1,0-.62c.49-.85,3.25-1,3.56-1a.18.18,0,0,1,.17.11.15.15,0,0,1,0,.19C227.31,386.08,226.1,387.29,225.14,387.26Zm2.25-1.84c-1.1.08-2.57.34-2.83.78a.28.28,0,0,0,0,.28.67.67,0,0,0,.53.41C225.61,387,226.46,386.41,227.39,385.42Z" style="fill:#407BFF"></path><path d="M227.56,385.4c-.95,0-2.68-.53-3-1.26a.62.62,0,0,1,.21-.76.92.92,0,0,1,.76-.25c1.11.12,2.39,1.9,2.45,2a.19.19,0,0,1,0,.18.18.18,0,0,1-.15.1A1.26,1.26,0,0,1,227.56,385.4Zm-2.13-1.91a.56.56,0,0,0-.43.15c-.17.16-.15.27-.12.35.22.49,1.65,1,2.58,1.05-.46-.57-1.32-1.48-2-1.55Z" style="fill:#407BFF"></path><path d="M160.43,406.38a2.88,2.88,0,0,1-1.8-.66,1,1,0,0,1-.24-.91.6.6,0,0,1,.36-.45c1-.41,3.86,1.45,4.18,1.67a.17.17,0,0,1,.08.19.18.18,0,0,1-.16.14A12.89,12.89,0,0,1,160.43,406.38Zm-1.2-1.72a.88.88,0,0,0-.34,0,.24.24,0,0,0-.14.19.62.62,0,0,0,.15.59c.42.47,1.66.67,3.38.57A10.12,10.12,0,0,0,159.23,404.66Z" style="fill:#407BFF"></path><path d="M162.81,406.36s-.05,0-.07,0c-.86-.5-2.49-2.33-2.26-3.18.06-.2.23-.44.73-.44a1.33,1.33,0,0,1,1,.42c.87.9.84,3,.83,3.05a.16.16,0,0,1-.09.15A.2.2,0,0,1,162.81,406.36Zm-1.49-3.28h-.11c-.33,0-.36.12-.38.17-.13.51.95,1.92,1.82,2.58a4.28,4.28,0,0,0-.73-2.45A1,1,0,0,0,161.32,403.08Z" style="fill:#407BFF"></path><path d="M164.81,203.71a77.2,77.2,0,0,1-9.48,10.5,36.78,36.78,0,0,1-6,4.57,16.77,16.77,0,0,1-4.06,1.8,9.68,9.68,0,0,1-2.78.38,8.23,8.23,0,0,1-1.67-.19c-.28-.07-.58-.16-.86-.26a5.88,5.88,0,0,1-.95-.43,5.63,5.63,0,0,1-1.81-1.55,6.61,6.61,0,0,1-.91-1.55,9.71,9.71,0,0,1-.69-2.52,21.79,21.79,0,0,1-.15-4.05,51.22,51.22,0,0,1,1-7.11A93.21,93.21,0,0,1,140.19,190l4.14,1.07c-.59,4.35-1.14,8.79-1.47,13.09a51.28,51.28,0,0,0-.16,6.27,13.11,13.11,0,0,0,.33,2.65,2.48,2.48,0,0,0,.25.69c.06.1,0-.21-.58-.58-.21-.1-.14-.09-.19-.1a.07.07,0,0,0,0,0s0,0,0,0a3.33,3.33,0,0,0,.51-.16,10.23,10.23,0,0,0,2-1.09,36.85,36.85,0,0,0,4.51-3.8c1.49-1.45,2.92-3,4.33-4.63s2.82-3.29,4.11-4.88Z" style="fill:#b55b52"></path><path d="M163.14,192.7c-3.13-.86-12.42,11-12.42,11l8.88,9.91s10.41-9.4,10-13.61C169.21,195.6,167.72,194,163.14,192.7Z" style="fill:#407BFF"></path><path d="M144.44,190l-.35-6.23-6,4.94s.91,4.83,3.94,5.79l1.87-2.63A3,3,0,0,0,144.44,190Z" style="fill:#b55b52"></path><polygon points="140.18 178.63 135.38 183.05 138.08 188.69 144.09 183.75 140.18 178.63" style="fill:#b55b52"></polygon><path d="M137.74,190.68l-1.39-.5a1.71,1.71,0,0,1-1.08-1.91l2.11-11.22,3.79,1.38L140,189.27A1.68,1.68,0,0,1,137.74,190.68Z" style="fill:#263238"></path><path d="M147.73,176.43c.24-.65.47-1.29.68-1.93a11.16,11.16,0,0,0-3.35-3.44c-.5,1.23-1,2.52-1.49,3.85s-.93,2.64-1.33,3.91a11.24,11.24,0,0,0,4.78-.48C147.26,177.71,147.5,177.08,147.73,176.43Z" style="fill:#263238"></path><path d="M145.22,175.52a23.78,23.78,0,0,0,1.27-4.82l-12.43-4.53-3.38,9.29L143.12,180A23.89,23.89,0,0,0,145.22,175.52Z" style="fill:#407BFF"></path><path d="M145.22,175.52a23.78,23.78,0,0,0,1.27-4.82l-12.43-4.53-3.38,9.29L143.12,180A23.89,23.89,0,0,0,145.22,175.52Z" style="fill:#fff;opacity:0.6000000000000001"></path><path d="M137.29,166.48c-.56-.21-14-14-15.5-14.59s-5.13,4.89-7.81,12.25-3.52,13.8-1.89,14.4,20.68-1.41,21.25-1.21,2.09-2,3.18-5S138,166.72,137.29,166.48Z" style="fill:#407BFF"></path><path d="M137.29,166.48c-.56-.21-14-14-15.5-14.59s-5.13,4.89-7.81,12.25-3.52,13.8-1.89,14.4,20.68-1.41,21.25-1.21,2.09-2,3.18-5S138,166.72,137.29,166.48Z" style="fill:#fff;opacity:0.4"></path><path d="M119.9,166.29c-2.68,7.36-6.18,12.84-7.81,12.25s-.79-7,1.89-14.4,6.18-12.84,7.81-12.25S122.58,158.94,119.9,166.29Z" style="fill:#407BFF"></path><path d="M116,164.85c-.18.49-.35,1-.51,1.45a12,12,0,0,0,3.33,2.88c.38-.92.76-1.89,1.13-2.89s.69-2,1-2.94a12,12,0,0,0-4.4.07C116.3,163.89,116.12,164.37,116,164.85Z" style="fill:#263238"></path><path d="M116,164.85c-.18.49-.35,1-.51,1.45a12,12,0,0,0,3.33,2.88c.38-.92.76-1.89,1.13-2.89s.69-2,1-2.94a12,12,0,0,0-4.4.07C116.3,163.89,116.12,164.37,116,164.85Z" style="fill:#fff;opacity:0.7000000000000001"></path><path d="M160.52,199.67c.46,6.65-1.09,10.61-2.19,12.52l1.27,1.41s5.87-5.3,8.63-9.72C165.13,199.28,160,192.68,160.52,199.67Z" style="opacity:0.2"></path><circle cx="195.48" cy="154.3" r="7.55" style="fill:#263238"></circle><path d="M194.67,157.74a4.75,4.75,0,1,1-4.75-4.74A4.75,4.75,0,0,1,194.67,157.74Z" style="fill:#407BFF"></path><path d="M174.84,151.85s-10-.82-10,16.38c0,11.78,5.72,17.23,12.73,13.27,0,0,15.46-1.27,17.24-15.42S185.65,146.66,174.84,151.85Z" style="fill:#263238"></path><path d="M161.1,193.16s-3.55,1.54,7,45.79l31-2.25c-1.44-12.58-2-20.35,2.13-46.68a92.11,92.11,0,0,0-13.29-.78,99.64,99.64,0,0,0-14.08,1C167.85,191.26,161.1,193.16,161.1,193.16Z" style="fill:#407BFF"></path><path d="M185.38,173.49c-.56,4.6-.84,13,2.55,15.75,0,0-.9,4.68-9.32,5.3-9.25.67-4.76-4.28-4.76-4.28,5-1.57,4.56-5.31,3.43-8.76Z" style="fill:#b55b52"></path><path d="M182.08,176.76l-4.8,4.74a14.78,14.78,0,0,1,.62,2.46c1.91-.42,4.4-2.73,4.46-4.76A6.76,6.76,0,0,0,182.08,176.76Z" style="opacity:0.2"></path><path d="M190.56,165.85c-1.73,7.39-2.31,10.56-6.74,13.75-6.66,4.8-15.36,1.05-15.87-6.71-.46-7,2.45-17.9,10.28-19.63A10.36,10.36,0,0,1,190.56,165.85Z" style="fill:#b55b52"></path><path d="M177.81,165.8c-.1.61-.51,1-.9,1s-.64-.62-.54-1.23.52-1,.91-1S177.92,165.19,177.81,165.8Z" style="fill:#263238"></path><path d="M170.94,164.63c-.11.6-.51,1-.91,1s-.64-.61-.53-1.22.51-1,.91-1S171,164,170.94,164.63Z" style="fill:#263238"></path><path d="M170.58,163.47l-1.39-.68S169.74,164.06,170.58,163.47Z" style="fill:#263238"></path><path d="M173.36,166.08a16.51,16.51,0,0,1-2.83,3.52,2.67,2.67,0,0,0,2.1.77Z" style="fill:#a02724"></path><path d="M191.42,173.05a5.61,5.61,0,0,1-3.38,2.57c-1.88.48-2.78-1.22-2.22-3,.5-1.58,2.09-3.73,4-3.44A2.5,2.5,0,0,1,191.42,173.05Z" style="fill:#b55b52"></path><path d="M180.81,164.87a.36.36,0,0,1-.34-.26c-.49-1.6-2.54-2.28-2.56-2.29a.36.36,0,0,1,.23-.69,5,5,0,0,1,3,2.77.36.36,0,0,1-.24.45A.25.25,0,0,1,180.81,164.87Z" style="fill:#263238"></path><path d="M169.41,161.1a.37.37,0,0,1-.17-.68,3.59,3.59,0,0,1,3.3-.22.36.36,0,1,1-.33.65h0a2.83,2.83,0,0,0-2.61.2A.41.41,0,0,1,169.41,161.1Z" style="fill:#263238"></path><path d="M177.45,164.64l-1.39-.67S176.62,165.24,177.45,164.64Z" style="fill:#263238"></path><path d="M173.23,172.26a40.26,40.26,0,0,1,7.73-.84c-.59,1.75-1.77,3.21-4.7,3.32A2.67,2.67,0,0,1,173.23,172.26Z" style="fill:#263238"></path><path d="M177.55,173.33a5.3,5.3,0,0,0-3.14,1,3.11,3.11,0,0,0,1.85.43,5.3,5.3,0,0,0,3.14-1A3,3,0,0,0,177.55,173.33Z" style="fill:#a02724"></path><path d="M173.49,172.2a1.2,1.2,0,0,0,.94.81,30.77,30.77,0,0,0,5-.68,1.6,1.6,0,0,0,1.25-.9A46.44,46.44,0,0,0,173.49,172.2Z" style="fill:#fff"></path><path d="M169.24,160.42a14,14,0,0,0,5.74-4.49s0,5.32,2.17,4.91-1.09-4.92-1.09-4.92,5,2.22,6.71,6.56,3.66,9.08,7.51,7.9,3-13.48-2.67-16.55l-8-1.44-2.36.35A8.86,8.86,0,0,0,173.8,154h0a9,9,0,0,0-3.56,4.11Z" style="fill:#263238"></path><path d="M187.91,161.06c-.37-.78-2.14-.71-4,.15s-1.89,1.67-1.52,2.45,1,1.23,2.86.37S188.28,161.84,187.91,161.06Zm-4.29,2c-.26-.56-.21-1.13,1.09-1.75s2.57-.66,2.83-.1-.57,1.51-1.87,2.12S183.89,163.65,183.62,163.09Z" style="fill:#407BFF"></path><path d="M197.8,200.28l-2.35-2-1.74.79a26.51,26.51,0,0,0,4.43,17.45c.15-3.33.46-7.08,1-11.56C198.4,202.26,197.8,200.28,197.8,200.28Z" style="opacity:0.2"></path><path d="M229.48,224.65l-1.27.13-.6-5.73a7.58,7.58,0,0,1,6.28-8.19,6.74,6.74,0,0,1,7.83,6l.61,5.73-1.27.14-.6-5.74a5.54,5.54,0,0,0-2.12-3.84,5.48,5.48,0,0,0-4.25-1.06,6.29,6.29,0,0,0-5.21,6.8Z" style="fill:#263238"></path><path d="M205.91,199c.18.86.42,1.92.65,2.89s.5,2,.78,3c.56,2,1.15,3.93,1.86,5.82a39.44,39.44,0,0,0,5.39,10.3l.21.27.1.14-.12-.12a1.55,1.55,0,0,0-.55-.31c-.3-.08-.29,0-.09,0a6.76,6.76,0,0,0,2.07-.44,36.14,36.14,0,0,0,5.36-2.47c3.63-2,7.3-4.28,10.85-6.59l2.77,3.26a78.61,78.61,0,0,1-10.12,8.86,37.87,37.87,0,0,1-6.12,3.68,14.11,14.11,0,0,1-4.2,1.26,7.28,7.28,0,0,1-3.31-.36,6,6,0,0,1-1.92-1.16c-.14-.13-.29-.27-.41-.4l-.16-.17-.32-.35a33.59,33.59,0,0,1-4.3-5.95,48.88,48.88,0,0,1-3.09-6.35A67.53,67.53,0,0,1,199,207.2c-.31-1.1-.6-2.21-.86-3.33s-.5-2.21-.7-3.49Z" style="fill:#b55b52"></path><path d="M201.22,190c3.17.72,8.72,12.18,8.72,12.18l-12.46,8.45s-5-8.61-4-12.72C194.5,193.65,197.6,189.2,201.22,190Z" style="fill:#407BFF"></path><path d="M231.9,211.44l7.24-4-1.52,7.63s-4.68,1.49-7-.73Z" style="fill:#b55b52"></path><polygon points="245.49 208.47 243.87 214.8 237.62 215.08 239.14 207.45 245.49 208.47" style="fill:#b55b52"></polygon><path d="M248.53,221.63l-1.2-5.64a6.29,6.29,0,0,0-7.05-4.86,5.48,5.48,0,0,0-4.55,6.63l1.2,5.64-1.24.27-1.2-5.64a6.74,6.74,0,0,1,5.59-8.15,7.58,7.58,0,0,1,8.5,5.85l1.2,5.64Z" style="fill:#263238"></path><g style="opacity:0.30000000000000004"><path d="M248.53,221.63l-1.2-5.64a6.29,6.29,0,0,0-7.05-4.86,5.48,5.48,0,0,0-4.55,6.63l1.2,5.64-1.24.27-1.2-5.64a6.74,6.74,0,0,1,5.59-8.15,7.58,7.58,0,0,1,8.5,5.85l1.2,5.64Z" style="fill:#fff"></path></g><polygon points="255.99 217.86 218.9 223.73 224.61 267.93 229.91 265.8 235.61 266.19 264.21 261.66 255.99 217.86" style="fill:#407BFF"></polygon><polygon points="255.99 217.86 218.9 223.73 224.61 267.93 229.91 265.8 235.61 266.19 264.21 261.66 255.99 217.86" style="fill:#fff;opacity:0.6000000000000001"></polygon><polygon points="235.61 266.19 229.91 265.8 224.61 267.93 218.9 223.73 227.38 222.39 235.61 266.19" style="fill:#407BFF"></polygon><polygon points="235.61 266.19 229.91 265.8 224.61 267.93 218.9 223.73 227.38 222.39 235.61 266.19" style="fill:#fff;opacity:0.30000000000000004"></polygon><rect x="235.65" y="238.1" width="18.55" height="3.16" rx="1.51" transform="translate(-34.48 41.26) rotate(-9)" style="fill:#fff"></rect></g></svg>