<svg width="72" height="64" viewBox="0 0 72 64" fill="none" xmlns="http://www.w3.org/2000/svg">
<path d="M62.2735 19.8333L62.1368 19.15H61.44H10.56H9.86317L9.72651 19.8333L7.32651 31.8333L7.12317 32.85H8.16H63.84H64.8768L64.6735 31.8333L62.2735 19.8333ZM4.85 40V39.15H4H0.85V32.0842L4.69683 12.85H67.3032L71.15 32.0842V39.15H68H67.15V40V63.15H60.85V40V39.15H60H44H43.15V40V63.15H4.85V40ZM11.15 56V56.85H12H36H36.85V56V40V39.15H36H12H11.15V40V56ZM4.85 7.15V0.85H67.15V7.15H4.85Z" fill="currentColor" stroke="currentColor" stroke-width="0"/>
</svg>
