<svg width="22" height="22" viewBox="0 0 22 22" fill="none" xmlns="http://www.w3.org/2000/svg">
<path d="M13.53 8.46992L8.47004 13.5299C7.82004 12.8799 7.42004 11.9899 7.42004 10.9999C7.42004 9.01992 9.02004 7.41992 11 7.41992C11.99 7.41992 12.88 7.81992 13.53 8.46992Z" stroke="#292D32" stroke-width="1.5" stroke-linecap="round" stroke-linejoin="round"/>
<path d="M16.82 4.76998C15.07 3.44998 13.07 2.72998 11 2.72998C7.46997 2.72998 4.17997 4.80998 1.88997 8.40998C0.989966 9.81998 0.989966 12.19 1.88997 13.6C2.67997 14.84 3.59997 15.91 4.59997 16.77" stroke="#292D32" stroke-width="1.5" stroke-linecap="round" stroke-linejoin="round"/>
<path d="M7.42004 18.5302C8.56004 19.0102 9.77004 19.2702 11 19.2702C14.53 19.2702 17.82 17.1902 20.11 13.5902C21.01 12.1802 21.01 9.81018 20.11 8.40018C19.78 7.88018 19.42 7.39018 19.05 6.93018" stroke="#292D32" stroke-width="1.5" stroke-linecap="round" stroke-linejoin="round"/>
<path d="M14.5099 11.7C14.2499 13.11 13.0999 14.26 11.6899 14.52" stroke="#292D32" stroke-width="1.5" stroke-linecap="round" stroke-linejoin="round"/>
<path d="M8.47 13.53L1 21" stroke="#292D32" stroke-width="1.5" stroke-linecap="round" stroke-linejoin="round"/>
<path d="M21 1L13.53 8.47" stroke="#292D32" stroke-width="1.5" stroke-linecap="round" stroke-linejoin="round"/>
</svg>
