<svg width="22" height="19" viewBox="0 0 22 19" fill="none" xmlns="http://www.w3.org/2000/svg">
<path d="M14.365 9.27995C14.365 11.26 12.765 12.86 10.785 12.86C8.80502 12.86 7.20502 11.26 7.20502 9.27995C7.20502 7.29995 8.80502 5.69995 10.785 5.69995C12.765 5.69995 14.365 7.29995 14.365 9.27995Z" stroke="#292D32" stroke-width="1.5" stroke-linecap="round" stroke-linejoin="round"/>
<path d="M10.785 17.55C14.315 17.55 17.605 15.47 19.895 11.87C20.795 10.46 20.795 8.09 19.895 6.68C17.605 3.08 14.315 1 10.785 1C7.255 1 3.965 3.08 1.675 6.68C0.775 8.09 0.775 10.46 1.675 11.87C3.965 15.47 7.255 17.55 10.785 17.55Z" stroke="#292D32" stroke-width="1.5" stroke-linecap="round" stroke-linejoin="round"/>
</svg>
