<svg data-icon-name="investment-dollar" data-style="line" icon_origin_id="15580" viewBox="0 0 24 24" xmlns="http://www.w3.org/2000/svg" id="investment-dollar" class="icon line" width="48" height="48"><path style="fill: none; stroke: currentColor; stroke-linecap: round; stroke-linejoin: round; stroke-width: 2px;" d="M20,6a3.43,3.43,0,0,1-3-.35,9.72,9.72,0,0,0-4-.57" id="primary"></path><path style="fill: none; stroke: currentColor; stroke-linecap: round; stroke-linejoin: round; stroke-width: 2px;" d="M14,10H11.5A1.5,1.5,0,0,0,10,11.5h0A1.5,1.5,0,0,0,11.5,13h1A1.5,1.5,0,0,1,14,14.5h0A1.5,1.5,0,0,1,12.5,16H10" data-name="primary" id="primary-2"></path><path style="fill: none; stroke: currentColor; stroke-linecap: round; stroke-linejoin: round; stroke-width: 2px;" d="M12,21a14.43,14.43,0,0,0,4.19-.57A4,4,0,0,0,19,16.61h0a11.29,11.29,0,0,0-.46-3.16L17.15,8.83A5.38,5.38,0,0,0,12,5h0A5.38,5.38,0,0,0,6.85,8.83L5.46,13.45A11.29,11.29,0,0,0,5,16.61H5a4,4,0,0,0,2.81,3.82A14.43,14.43,0,0,0,12,21Zm0-11V9m0,8V16" data-name="primary" id="primary-3"></path><polyline style="fill: none; stroke: currentColor; stroke-linecap: round; stroke-linejoin: round; stroke-width: 2px;" points="11.04 5 10.5 3 13.5 3 12.97 4.97" data-name="primary" id="primary-4"></polyline></svg>