<svg width="14" height="17" viewBox="0 0 14 17" fill="none" xmlns="http://www.w3.org/2000/svg">
<path d="M5.75016 11.0003H8.25016L7.771 8.31283C8.04877 8.17394 8.26752 7.97255 8.42725 7.70866C8.58697 7.44477 8.66683 7.1531 8.66683 6.83366C8.66683 6.37533 8.50364 5.98296 8.17725 5.65658C7.85086 5.33019 7.4585 5.16699 7.00016 5.16699C6.54183 5.16699 6.14947 5.33019 5.82308 5.65658C5.49669 5.98296 5.3335 6.37533 5.3335 6.83366C5.3335 7.1531 5.41336 7.44477 5.57308 7.70866C5.7328 7.97255 5.95155 8.17394 6.22933 8.31283L5.75016 11.0003ZM7.00016 16.8337C5.06961 16.3475 3.47586 15.2399 2.21891 13.5107C0.961968 11.7816 0.333496 9.86144 0.333496 7.75033V2.66699L7.00016 0.166992L13.6668 2.66699V7.75033C13.6668 9.86144 13.0384 11.7816 11.7814 13.5107C10.5245 15.2399 8.93072 16.3475 7.00016 16.8337ZM7.00016 15.0837C8.44461 14.6253 9.63905 13.7087 10.5835 12.3337C11.5279 10.9587 12.0002 9.43088 12.0002 7.75033V3.81283L7.00016 1.93783L2.00016 3.81283V7.75033C2.00016 9.43088 2.47238 10.9587 3.41683 12.3337C4.36127 13.7087 5.55572 14.6253 7.00016 15.0837Z" fill="currentColor"/>
</svg>
