<svg xmlns="http://www.w3.org/2000/svg" enable-background="new 0 0 25 25" viewBox="0 0 25 25"><path fill="#DE002A" d="M6.892,19H1.595c-0.344,0-0.663-0.176-0.846-0.467l-0.595-0.944c-0.146-0.23-0.19-0.511-0.124-0.775c0.066-0.265,0.237-0.491,0.474-0.626l3.892-2.224c0.464-0.266,1.056-0.119,1.342,0.334l2,3.168c0.194,0.308,0.206,0.697,0.03,1.017C7.592,18.802,7.256,19,6.892,19z M3.113,17h1.965l-0.521-0.825L3.113,17z"/><path fill="#583689" d="M24 19h-5.298c-.343 0-.663-.176-.846-.466l-5.535-8.775c-.146-.231-.19-.511-.125-.775s.237-.491.474-.626l3.888-2.225c.464-.267 1.056-.119 1.342.334l6.945 11c.194.308.206.697.03 1.017C24.7 18.802 24.364 19 24 19zM19.254 17h2.932l-5.465-8.657-2.15 1.231L19.254 17zM15.515 19h-5.294c-.343 0-.662-.176-.846-.466l-3.068-4.858c-.146-.231-.19-.511-.125-.775.065-.265.237-.491.473-.626l3.892-2.229c.466-.268 1.058-.118 1.343.334l4.47 7.086c.194.308.206.698.03 1.017C16.214 18.802 15.879 19 15.515 19zM10.772 17h2.93l-2.992-4.743-2.154 1.234L10.772 17z"/></svg>