<svg xmlns="http://www.w3.org/2000/svg" viewBox="0 0 64 64"><path fill="#fcd8aa" d="M54.5,6V38A13.5,13.5,0,0,0,33,52H8.5a4,4,0,0,1-4-4V6a4,4,0,0,1,4-4H21V26H38V2H50.5A4,4,0,0,1,54.5,6Z"/><rect width="17" height="24" x="21" y="2" fill="#ffc578"/><path fill="#7fd73c" d="M59.5,48.5A13.5,13.5,0,1,1,54.5,38,13.49,13.49,0,0,1,59.5,48.5Z"/><path d="M50.5,0H8.5a6,6,0,0,0-6,6V48a6,6,0,0,0,6,6h23a15.49,15.49,0,1,0,25-16.87V6A6,6,0,0,0,50.5,0ZM23,4H36V24H23Zm7.58,46H8.5a2,2,0,0,1-2-2V6a2,2,0,0,1,2-2H19V26a2,2,0,0,0,2,2H38a2,2,0,0,0,2-2V4H50.5a2,2,0,0,1,2,2V34.45a15.46,15.46,0,0,0-22,14A14.76,14.76,0,0,0,30.58,50ZM57.5,48.5A11.5,11.5,0,1,1,46,37,11.51,11.51,0,0,1,57.5,48.5Z"/><path d="M43.78,51.17,37.7,45.09l-2.83,2.82,7.5,7.5a2,2,0,0,0,1.41.59,2,2,0,0,0,1.42-.59l11-11-2.83-2.82Z"/><rect width="4" height="4" x="9.5" y="43"/><rect width="4" height="4" x="15.5" y="43"/></svg>