<svg id="svg" version="1.1" xmlns="http://www.w3.org/2000/svg" xmlns:xlink="http://www.w3.org/1999/xlink" width="400" height="400" viewBox="0, 0, 400,400"><g id="svgg"><path id="path0" d="M142.860 115.441 C 142.557 115.784,141.833 116.001,141.210 115.935 C 140.600 115.871,139.830 116.043,139.501 116.316 C 139.171 116.590,138.609 116.701,138.251 116.564 C 137.893 116.427,137.600 116.499,137.600 116.725 C 137.600 117.084,134.932 118.983,134.400 119.003 C 133.734 119.026,130.283 121.858,128.488 123.853 C 125.544 127.126,125.200 127.554,125.200 127.940 C 125.200 128.127,124.690 128.983,124.068 129.843 C 123.445 130.703,123.020 131.659,123.123 131.968 C 123.226 132.277,123.060 132.726,122.755 132.965 C 121.960 133.588,121.880 149.468,122.671 149.772 C 122.962 149.883,123.200 150.313,123.200 150.725 C 123.200 151.138,123.560 151.802,124.000 152.200 C 124.440 152.598,124.800 153.142,124.800 153.408 C 124.800 153.674,125.154 154.342,125.587 154.892 C 126.020 155.443,126.283 155.984,126.172 156.095 C 125.816 156.451,130.923 161.245,133.200 162.692 C 134.410 163.461,135.775 164.548,136.233 165.109 C 136.828 165.836,137.315 166.063,137.934 165.901 C 138.412 165.776,138.936 165.883,139.101 166.137 C 139.532 166.805,274.868 166.805,275.299 166.137 C 275.464 165.883,275.959 165.769,276.399 165.884 C 276.847 166.001,277.200 165.897,277.200 165.647 C 277.200 165.401,277.470 165.200,277.800 165.200 C 278.130 165.200,278.400 165.036,278.400 164.836 C 278.400 164.636,279.525 163.757,280.900 162.883 C 283.660 161.129,287.126 157.911,287.897 156.384 C 289.041 154.121,289.971 152.719,290.807 151.994 C 291.338 151.533,291.598 150.972,291.454 150.597 C 291.312 150.226,291.469 149.872,291.841 149.729 C 292.315 149.547,292.406 149.159,292.215 148.139 C 292.025 147.124,292.115 146.731,292.581 146.552 C 293.501 146.199,293.501 136.201,292.581 135.848 C 292.107 135.666,292.025 135.276,292.228 134.189 C 292.433 133.099,292.368 132.795,291.947 132.884 C 291.610 132.956,291.430 132.693,291.478 132.200 C 291.521 131.760,291.026 130.736,290.378 129.923 C 289.730 129.111,289.200 128.339,289.200 128.207 C 289.200 126.704,281.514 119.089,279.920 119.013 C 279.766 119.006,279.415 118.775,279.140 118.500 C 278.865 118.225,278.416 118.000,278.143 118.000 C 277.869 118.000,277.380 117.620,277.055 117.157 C 276.730 116.693,276.262 116.438,276.014 116.591 C 275.767 116.744,275.280 116.633,274.932 116.344 C 274.585 116.055,273.806 115.871,273.203 115.934 C 272.600 115.997,271.825 115.768,271.482 115.425 C 270.539 114.482,143.694 114.498,142.860 115.441 " stroke="none" fill="#e41b33" fill-rule="evenodd"></path><path id="path1" d="M159.055 183.400 C 158.922 183.749,158.276 184.020,157.513 184.047 L 156.200 184.095 157.400 184.400 C 158.526 184.687,158.495 184.708,156.900 184.753 C 155.288 184.798,154.618 184.302,155.700 183.865 C 156.018 183.736,155.964 183.652,155.549 183.632 C 155.191 183.614,154.674 183.870,154.400 184.200 C 154.126 184.530,153.485 184.800,152.975 184.800 C 152.465 184.800,151.936 184.980,151.800 185.200 C 151.664 185.420,151.113 185.600,150.576 185.600 C 150.039 185.600,149.600 185.780,149.600 186.000 C 149.600 186.220,149.161 186.400,148.624 186.400 C 148.087 186.400,147.531 186.587,147.390 186.816 C 147.248 187.045,146.788 187.123,146.366 186.989 C 145.850 186.825,145.600 186.937,145.600 187.330 C 145.600 187.882,144.938 188.357,144.317 188.249 C 144.162 188.222,143.762 188.560,143.430 189.000 C 142.839 189.782,142.825 189.782,142.813 189.024 C 142.802 188.350,142.734 188.326,142.300 188.845 C 141.474 189.834,137.364 192.800,136.820 192.800 C 136.542 192.800,136.412 193.053,136.530 193.362 C 136.649 193.672,136.394 194.243,135.964 194.633 C 135.361 195.178,135.298 195.418,135.691 195.678 C 135.992 195.877,135.670 195.928,134.900 195.801 C 133.997 195.654,133.600 195.746,133.600 196.103 C 133.600 196.386,133.059 197.274,132.399 198.075 C 131.561 199.091,131.349 199.600,131.699 199.755 C 132.037 199.904,132.005 199.965,131.600 199.941 C 130.350 199.866,129.962 200.015,130.238 200.461 C 130.394 200.714,130.190 201.164,129.785 201.461 C 129.073 201.981,129.074 202.000,129.824 202.013 C 130.592 202.025,130.592 202.031,129.824 202.613 C 129.396 202.936,129.184 203.200,129.351 203.200 C 129.518 203.200,129.282 203.723,128.827 204.362 C 128.372 205.001,128.000 205.796,128.000 206.128 C 128.000 206.461,127.775 206.838,127.500 206.967 C 127.100 207.153,127.100 207.247,127.500 207.433 C 127.775 207.562,127.997 207.967,127.994 208.333 C 127.989 208.910,127.935 208.919,127.600 208.400 C 127.342 208.000,127.210 207.967,127.206 208.300 C 127.203 208.575,126.918 208.800,126.573 208.800 C 126.123 208.800,126.020 209.031,126.206 209.619 C 126.349 210.070,126.249 210.700,125.984 211.019 C 125.644 211.429,125.634 211.600,125.951 211.600 C 126.198 211.600,126.397 211.915,126.394 212.300 C 126.389 212.898,126.331 212.913,126.000 212.400 C 125.686 211.915,125.611 211.972,125.606 212.700 C 125.603 213.195,125.375 213.600,125.100 213.600 C 123.864 213.599,123.925 285.508,125.162 285.921 C 125.403 286.001,125.603 286.367,125.606 286.733 C 125.611 287.310,125.665 287.319,126.000 286.800 C 126.331 286.287,126.389 286.302,126.394 286.900 C 126.397 287.285,126.130 287.600,125.800 287.600 C 125.010 287.600,125.029 288.249,125.828 288.555 C 126.229 288.709,126.369 289.069,126.216 289.551 C 126.062 290.036,126.204 290.393,126.613 290.550 C 126.964 290.684,127.140 290.973,127.005 291.192 C 126.870 291.410,127.404 292.154,128.191 292.845 C 129.132 293.672,129.548 294.334,129.406 294.782 C 129.150 295.586,133.876 300.533,134.625 300.246 C 134.884 300.146,135.707 300.545,136.453 301.132 C 138.350 302.625,139.600 303.289,139.600 302.803 C 139.600 302.582,139.915 302.414,140.300 302.432 C 140.694 302.449,140.787 302.549,140.514 302.660 C 140.135 302.814,140.134 303.026,140.511 303.629 C 141.080 304.540,141.676 304.662,141.345 303.800 C 141.179 303.367,141.377 303.209,142.057 303.232 C 142.576 303.249,142.786 303.350,142.525 303.457 C 141.657 303.810,143.439 305.167,144.430 304.908 C 144.997 304.760,145.488 304.906,145.784 305.310 C 146.134 305.789,146.665 305.888,147.955 305.715 C 149.094 305.562,149.486 305.374,149.132 305.149 C 148.798 304.938,149.270 304.812,150.400 304.812 C 151.531 304.812,152.002 304.938,151.668 305.150 C 151.294 305.386,151.527 305.565,152.448 305.750 C 153.409 305.942,153.852 305.850,154.101 305.406 C 154.287 305.073,154.836 304.797,155.320 304.794 C 156.035 304.789,156.087 304.715,155.600 304.400 C 155.115 304.086,155.172 304.011,155.900 304.006 C 156.436 304.002,156.800 304.243,156.800 304.600 C 156.800 304.930,156.980 305.200,157.200 305.200 C 157.420 305.200,157.600 305.033,157.600 304.829 C 157.600 304.412,159.852 303.200,160.628 303.200 C 160.906 303.200,161.193 303.065,161.267 302.900 C 161.340 302.735,162.300 302.153,163.400 301.607 C 166.571 300.033,174.689 291.640,173.097 291.582 C 172.823 291.572,173.134 291.336,173.786 291.058 C 174.760 290.643,174.849 290.505,174.286 290.289 C 173.432 289.961,173.384 289.200,174.218 289.200 C 174.704 289.200,174.782 288.910,174.582 287.846 C 174.429 287.030,174.501 286.385,174.764 286.222 C 175.004 286.074,175.200 285.344,175.200 284.600 C 175.200 283.856,175.380 283.136,175.600 283.000 C 175.858 282.841,176.000 275.711,176.000 262.920 C 176.000 244.502,176.050 243.050,176.700 242.557 C 177.367 242.051,177.367 242.025,176.700 242.013 C 176.302 242.005,176.003 241.698,176.006 241.300 C 176.010 240.810,176.106 240.748,176.325 241.092 C 176.541 241.432,177.471 240.743,179.344 238.857 C 180.832 237.357,182.669 235.887,183.427 235.590 C 184.365 235.221,184.644 234.948,184.302 234.731 C 183.969 234.519,184.111 234.410,184.724 234.406 C 185.232 234.403,185.548 234.561,185.426 234.758 C 184.945 235.537,187.673 235.600,221.790 235.600 C 252.820 235.600,257.142 235.527,257.345 235.000 C 257.479 234.649,258.119 234.383,258.887 234.360 C 260.126 234.323,260.144 234.302,259.200 234.000 C 258.308 233.714,258.361 233.675,259.700 233.640 C 261.148 233.601,261.728 234.120,260.700 234.535 C 260.384 234.662,260.442 234.748,260.857 234.768 C 261.219 234.786,261.626 234.510,261.762 234.155 C 261.919 233.745,262.301 233.585,262.805 233.717 C 263.320 233.852,263.600 233.727,263.600 233.363 C 263.600 232.579,264.278 232.659,264.768 233.500 C 264.992 233.885,265.181 233.988,265.188 233.729 C 265.195 233.471,266.180 232.779,267.378 232.193 C 269.554 231.129,276.455 224.629,276.729 223.386 C 276.800 223.064,277.160 222.794,277.529 222.787 C 278.111 222.776,278.097 222.697,277.424 222.187 C 276.719 221.655,276.712 221.600,277.351 221.600 C 277.872 221.600,277.988 221.393,277.800 220.800 C 277.615 220.217,277.728 220.000,278.216 220.000 C 278.640 220.000,278.803 219.785,278.660 219.413 C 278.536 219.090,278.607 218.719,278.817 218.589 C 279.028 218.459,279.200 217.859,279.200 217.256 C 279.200 216.653,279.363 215.989,279.563 215.780 C 280.645 214.648,280.633 204.039,279.550 203.369 C 279.357 203.250,279.200 202.634,279.200 202.000 C 279.200 201.366,279.005 200.727,278.768 200.580 C 278.530 200.433,278.443 199.882,278.575 199.356 C 278.753 198.649,278.650 198.400,278.181 198.400 C 277.728 198.400,277.619 198.171,277.800 197.600 C 277.985 197.017,277.872 196.800,277.384 196.800 C 276.976 196.800,276.798 196.582,276.928 196.243 C 277.046 195.936,276.705 195.275,276.171 194.773 C 275.637 194.271,275.197 193.667,275.194 193.430 C 275.190 193.194,274.290 192.127,273.194 191.061 C 272.097 189.994,271.200 188.965,271.200 188.773 C 271.200 188.582,270.948 188.522,270.640 188.640 C 270.333 188.758,269.950 188.643,269.790 188.385 C 269.575 188.035,269.406 188.054,269.133 188.457 C 268.834 188.900,268.778 188.889,268.831 188.400 C 268.975 187.051,268.795 186.748,268.000 187.000 C 267.541 187.146,267.200 187.072,267.200 186.827 C 267.200 186.592,266.840 186.400,266.400 186.400 C 265.960 186.400,265.600 186.220,265.600 186.000 C 265.600 185.780,265.268 185.600,264.861 185.600 C 263.870 185.600,261.600 184.443,261.600 183.937 C 261.600 183.715,261.375 183.616,261.100 183.717 C 260.825 183.818,260.645 184.103,260.700 184.350 C 260.759 184.617,260.273 184.784,259.500 184.760 C 258.268 184.722,258.253 184.703,259.200 184.400 C 260.144 184.098,260.126 184.077,258.887 184.040 C 258.119 184.017,257.479 183.751,257.345 183.400 C 256.995 182.488,159.405 182.488,159.055 183.400 M256.000 183.600 C 256.000 183.864,239.867 184.000,208.400 184.000 C 176.933 184.000,160.800 183.864,160.800 183.600 C 160.800 183.336,176.933 183.200,208.400 183.200 C 239.867 183.200,256.000 183.336,256.000 183.600 M125.476 217.100 C 125.375 217.485,125.293 217.170,125.293 216.400 C 125.293 215.630,125.375 215.315,125.476 215.700 C 125.576 216.085,125.576 216.715,125.476 217.100 M175.476 245.100 C 175.375 245.485,175.293 245.170,175.293 244.400 C 175.293 243.630,175.375 243.315,175.476 243.700 C 175.576 244.085,175.576 244.715,175.476 245.100 " stroke="none" fill="#1b3363" fill-rule="evenodd"></path><path id="path2" d="M139.600 115.200 C 139.600 115.420,139.100 115.600,138.488 115.600 C 137.835 115.600,137.139 115.930,136.800 116.400 C 136.483 116.840,135.903 117.200,135.512 117.200 C 135.120 117.200,134.800 117.380,134.800 117.600 C 134.800 117.820,134.480 118.000,134.088 118.000 C 133.697 118.000,133.117 118.360,132.800 118.800 C 132.483 119.240,131.990 119.600,131.704 119.600 C 131.419 119.600,130.019 120.767,128.593 122.193 C 127.167 123.619,126.000 125.019,126.000 125.304 C 126.000 125.590,125.640 126.083,125.200 126.400 C 124.760 126.717,124.400 127.257,124.400 127.600 C 124.400 127.943,124.040 128.483,123.600 128.800 C 123.160 129.117,122.800 129.697,122.800 130.088 C 122.800 130.480,122.620 130.800,122.400 130.800 C 122.180 130.800,122.000 131.355,122.000 132.033 C 122.000 133.387,122.988 133.515,123.016 132.165 C 123.025 131.744,123.520 130.683,124.116 129.807 C 124.712 128.931,125.200 128.076,125.200 127.907 C 125.200 126.742,133.150 119.047,134.400 119.003 C 134.919 118.984,137.600 117.088,137.600 116.740 C 137.600 116.524,137.935 116.452,138.344 116.582 C 138.766 116.716,139.297 116.565,139.573 116.233 C 139.840 115.911,140.316 115.746,140.630 115.867 C 141.394 116.160,143.200 115.686,143.200 115.192 C 143.200 114.977,142.390 114.800,141.400 114.800 C 140.410 114.800,139.600 114.980,139.600 115.200 M271.200 115.192 C 271.200 115.686,273.006 116.160,273.770 115.867 C 274.084 115.746,274.564 115.915,274.835 116.242 C 275.106 116.569,275.595 116.734,275.920 116.609 C 276.257 116.480,276.756 116.730,277.079 117.191 C 277.390 117.636,277.869 118.000,278.143 118.000 C 278.416 118.000,278.865 118.225,279.140 118.500 C 279.415 118.775,279.766 119.006,279.920 119.013 C 281.514 119.089,289.200 126.704,289.200 128.207 C 289.200 128.339,289.730 129.111,290.378 129.923 C 291.026 130.736,291.521 131.670,291.478 132.000 C 291.435 132.330,291.580 132.690,291.800 132.800 C 292.020 132.910,292.257 132.505,292.327 131.900 C 292.396 131.295,292.261 130.800,292.027 130.800 C 291.792 130.800,291.600 130.480,291.600 130.088 C 291.600 129.697,291.240 129.117,290.800 128.800 C 290.360 128.483,290.000 127.943,290.000 127.600 C 290.000 127.257,289.640 126.717,289.200 126.400 C 288.760 126.083,288.400 125.590,288.400 125.304 C 288.400 124.628,283.372 119.600,282.696 119.600 C 282.410 119.600,281.917 119.240,281.600 118.800 C 281.283 118.360,280.703 118.000,280.312 118.000 C 279.920 118.000,279.600 117.820,279.600 117.600 C 279.600 117.380,279.280 117.200,278.888 117.200 C 278.497 117.200,277.917 116.840,277.600 116.400 C 277.261 115.930,276.565 115.600,275.912 115.600 C 275.300 115.600,274.800 115.420,274.800 115.200 C 274.800 114.980,273.990 114.800,273.000 114.800 C 272.010 114.800,271.200 114.977,271.200 115.192 M292.231 134.218 C 291.961 135.293,292.196 136.000,292.824 136.000 C 293.031 136.000,293.200 135.370,293.200 134.600 C 293.200 132.972,292.603 132.737,292.231 134.218 M121.200 141.167 C 121.200 143.969,121.360 146.000,121.582 146.000 C 122.556 146.000,122.670 136.820,121.700 136.499 C 121.318 136.373,121.200 137.478,121.200 141.167 M292.211 146.782 C 291.895 147.293,292.394 149.200,292.843 149.200 C 293.040 149.200,293.200 148.570,293.200 147.800 C 293.200 146.464,292.716 145.965,292.211 146.782 M122.000 150.567 C 122.000 151.135,122.180 151.600,122.400 151.600 C 122.620 151.600,122.800 151.920,122.800 152.312 C 122.800 152.703,123.160 153.283,123.600 153.600 C 124.040 153.917,124.400 154.420,124.400 154.717 C 124.400 155.476,125.511 156.502,126.004 156.198 C 126.258 156.041,126.106 155.553,125.607 154.918 C 125.163 154.354,124.800 153.674,124.800 153.408 C 124.800 153.142,124.450 152.607,124.022 152.220 C 123.595 151.833,123.190 151.144,123.122 150.690 C 122.937 149.440,122.000 149.337,122.000 150.567 M291.494 149.839 C 291.363 149.971,291.354 150.336,291.475 150.651 C 291.596 150.966,291.295 151.571,290.807 151.994 C 289.962 152.727,288.990 154.199,287.899 156.400 C 287.627 156.950,286.998 157.728,286.502 158.129 C 285.549 158.899,285.319 159.600,286.018 159.600 C 286.618 159.600,288.400 157.735,288.400 157.106 C 288.400 156.815,288.760 156.317,289.200 156.000 C 289.640 155.683,290.000 155.103,290.000 154.712 C 290.000 154.320,290.180 154.000,290.400 154.000 C 290.620 154.000,290.800 153.680,290.800 153.288 C 290.800 152.897,291.160 152.317,291.600 152.000 C 292.040 151.683,292.400 151.013,292.400 150.512 C 292.400 149.636,291.997 149.336,291.494 149.839 M126.000 157.218 C 126.000 157.761,127.839 159.600,128.382 159.600 C 129.094 159.600,128.847 158.995,127.678 157.875 C 126.484 156.730,126.000 156.541,126.000 157.218 M129.200 160.446 C 129.200 161.044,132.019 163.600,132.678 163.600 C 132.965 163.600,133.200 163.780,133.200 164.000 C 133.200 164.220,133.560 164.400,134.000 164.400 C 134.440 164.400,134.800 164.580,134.800 164.800 C 134.800 165.020,135.070 165.200,135.400 165.200 C 136.582 165.200,135.960 164.446,133.492 162.888 C 132.113 162.017,130.741 161.011,130.443 160.652 C 129.819 159.900,129.200 159.797,129.200 160.446 M283.957 160.652 C 283.659 161.011,282.287 162.017,280.908 162.888 C 278.440 164.446,277.818 165.200,279.000 165.200 C 279.330 165.200,279.600 165.020,279.600 164.800 C 279.600 164.580,279.920 164.400,280.312 164.400 C 280.703 164.400,281.283 164.040,281.600 163.600 C 281.917 163.160,282.415 162.800,282.706 162.800 C 283.335 162.800,285.200 161.018,285.200 160.418 C 285.200 159.794,284.570 159.913,283.957 160.652 M277.200 165.625 C 277.200 165.859,276.812 165.994,276.337 165.925 C 275.863 165.856,275.398 166.025,275.304 166.300 C 275.067 166.995,276.717 166.940,277.429 166.229 C 278.099 165.558,278.158 165.200,277.600 165.200 C 277.380 165.200,277.200 165.391,277.200 165.625 M137.900 165.900 C 136.842 166.140,137.062 166.800,138.200 166.800 C 138.750 166.800,139.200 166.631,139.200 166.424 C 139.200 165.902,138.727 165.712,137.900 165.900 M142.900 166.682 C 138.818 167.469,148.032 167.600,207.200 167.600 C 266.693 167.600,275.263 167.473,271.150 166.650 C 269.768 166.374,144.339 166.405,142.900 166.682 M160.600 182.400 C 160.436 182.666,176.470 182.800,208.400 182.800 C 240.330 182.800,256.364 182.666,256.200 182.400 C 256.037 182.137,239.670 182.000,208.400 182.000 C 177.130 182.000,160.763 182.137,160.600 182.400 M154.200 183.200 C 154.053 183.438,154.529 183.600,155.376 183.600 C 156.159 183.600,156.800 183.420,156.800 183.200 C 156.800 182.980,156.271 182.800,155.624 182.800 C 154.977 182.800,154.336 182.980,154.200 183.200 M259.600 183.200 C 259.600 183.420,260.140 183.600,260.800 183.600 C 261.460 183.600,262.000 183.420,262.000 183.200 C 262.000 182.980,261.460 182.800,260.800 182.800 C 260.140 182.800,259.600 182.980,259.600 183.200 M151.600 184.000 C 151.600 184.220,151.870 184.400,152.200 184.400 C 152.530 184.400,152.800 184.220,152.800 184.000 C 152.800 183.780,152.530 183.600,152.200 183.600 C 151.870 183.600,151.600 183.780,151.600 184.000 M149.400 184.800 C 149.264 185.020,149.523 185.200,149.976 185.200 C 150.429 185.200,150.800 185.020,150.800 184.800 C 150.800 184.580,150.541 184.400,150.224 184.400 C 149.907 184.400,149.536 184.580,149.400 184.800 M264.400 184.800 C 264.400 185.020,264.771 185.200,265.224 185.200 C 265.677 185.200,265.936 185.020,265.800 184.800 C 265.664 184.580,265.293 184.400,264.976 184.400 C 264.659 184.400,264.400 184.580,264.400 184.800 M147.600 185.600 C 147.600 185.820,147.870 186.000,148.200 186.000 C 148.530 186.000,148.800 185.820,148.800 185.600 C 148.800 185.380,148.530 185.200,148.200 185.200 C 147.870 185.200,147.600 185.380,147.600 185.600 M140.229 189.029 C 139.805 189.338,139.572 189.705,139.710 189.843 C 139.849 189.982,140.262 189.795,140.629 189.429 C 141.491 188.566,141.225 188.300,140.229 189.029 M271.600 188.607 C 271.600 188.975,276.853 194.080,277.040 193.894 C 277.235 193.699,272.211 188.400,271.831 188.400 C 271.704 188.400,271.600 188.493,271.600 188.607 M137.029 191.429 C 136.605 191.738,136.372 192.105,136.510 192.243 C 136.649 192.382,137.062 192.195,137.429 191.829 C 138.291 190.966,138.025 190.700,137.029 191.429 M134.860 194.251 C 134.343 194.802,134.017 195.350,134.136 195.469 C 134.352 195.685,136.400 193.830,136.400 193.418 C 136.400 192.947,135.756 193.295,134.860 194.251 M132.060 196.242 C 131.331 197.066,131.800 197.457,132.581 196.676 C 132.921 196.336,133.200 195.954,133.200 195.829 C 133.200 195.409,132.606 195.624,132.060 196.242 M279.600 201.200 C 279.600 201.640,279.780 202.000,280.000 202.000 C 280.220 202.000,280.400 201.640,280.400 201.200 C 280.400 200.760,280.220 200.400,280.000 200.400 C 279.780 200.400,279.600 200.760,279.600 201.200 M128.060 203.442 C 127.331 204.266,127.800 204.657,128.581 203.876 C 128.921 203.536,129.200 203.154,129.200 203.029 C 129.200 202.609,128.606 202.824,128.060 203.442 M280.400 203.776 C 280.400 204.339,280.580 204.800,280.800 204.800 C 281.020 204.800,281.200 204.451,281.200 204.024 C 281.200 203.597,281.020 203.136,280.800 203.000 C 280.573 202.860,280.400 203.196,280.400 203.776 M126.000 207.400 C 126.000 207.730,126.180 208.000,126.400 208.000 C 126.620 208.000,126.800 207.730,126.800 207.400 C 126.800 207.070,126.620 206.800,126.400 206.800 C 126.180 206.800,126.000 207.070,126.000 207.400 M281.200 209.600 C 281.200 210.863,281.353 211.553,281.600 211.400 C 281.820 211.264,282.000 210.454,282.000 209.600 C 282.000 208.746,281.820 207.936,281.600 207.800 C 281.353 207.647,281.200 208.337,281.200 209.600 M125.200 209.800 C 125.200 210.130,125.380 210.400,125.600 210.400 C 125.820 210.400,126.000 210.130,126.000 209.800 C 126.000 209.470,125.820 209.200,125.600 209.200 C 125.380 209.200,125.200 209.470,125.200 209.800 M124.400 211.600 C 124.400 212.040,124.580 212.400,124.800 212.400 C 125.020 212.400,125.200 212.040,125.200 211.600 C 125.200 211.160,125.020 210.800,124.800 210.800 C 124.580 210.800,124.400 211.160,124.400 211.600 M280.400 215.024 C 280.400 215.871,280.562 216.347,280.800 216.200 C 281.020 216.064,281.200 215.423,281.200 214.776 C 281.200 214.129,281.020 213.600,280.800 213.600 C 280.580 213.600,280.400 214.241,280.400 215.024 M123.600 215.200 C 123.600 215.860,123.780 216.400,124.000 216.400 C 124.220 216.400,124.400 215.860,124.400 215.200 C 124.400 214.540,124.220 214.000,124.000 214.000 C 123.780 214.000,123.600 214.540,123.600 215.200 M279.600 217.967 C 279.600 218.388,279.375 218.814,279.100 218.912 C 278.825 219.010,278.726 219.227,278.881 219.393 C 279.257 219.797,280.400 218.620,280.400 217.829 C 280.400 217.483,280.220 217.200,280.000 217.200 C 279.780 217.200,279.600 217.545,279.600 217.967 M123.067 218.267 C 122.617 218.716,122.749 281.521,123.200 281.800 C 123.465 281.964,123.600 271.271,123.600 250.024 C 123.600 232.411,123.540 218.000,123.467 218.000 C 123.393 218.000,123.213 218.120,123.067 218.267 M272.863 228.259 C 271.687 229.469,270.819 230.553,270.934 230.667 C 271.140 230.873,275.600 226.611,275.600 226.209 C 275.600 225.660,274.822 226.243,272.863 228.259 M267.600 232.800 C 267.600 233.020,267.240 233.200,266.800 233.200 C 266.360 233.200,266.000 233.380,266.000 233.600 C 266.000 234.194,267.173 234.084,267.829 233.429 C 268.499 232.758,268.558 232.400,268.000 232.400 C 267.780 232.400,267.600 232.580,267.600 232.800 M259.200 235.200 C 259.200 235.420,259.650 235.600,260.200 235.600 C 260.750 235.600,261.200 235.420,261.200 235.200 C 261.200 234.980,260.750 234.800,260.200 234.800 C 259.650 234.800,259.200 234.980,259.200 235.200 M184.400 236.000 C 184.400 236.264,196.459 236.400,219.776 236.400 C 242.929 236.400,255.238 236.262,255.400 236.000 C 255.564 235.734,243.671 235.600,220.024 235.600 C 196.541 235.600,184.400 235.736,184.400 236.000 M182.400 236.800 C 182.400 237.020,182.670 237.200,183.000 237.200 C 183.330 237.200,183.600 237.020,183.600 236.800 C 183.600 236.580,183.330 236.400,183.000 236.400 C 182.670 236.400,182.400 236.580,182.400 236.800 M177.200 242.200 C 177.200 242.530,177.380 242.800,177.600 242.800 C 177.820 242.800,178.000 242.530,178.000 242.200 C 178.000 241.870,177.820 241.600,177.600 241.600 C 177.380 241.600,177.200 241.870,177.200 242.200 M176.400 263.824 C 176.400 276.937,176.535 283.564,176.800 283.400 C 177.058 283.241,177.200 276.196,177.200 263.576 C 177.200 250.792,177.061 244.000,176.800 244.000 C 176.539 244.000,176.400 250.875,176.400 263.824 M123.812 284.917 C 123.641 285.312,123.613 285.747,123.751 285.884 C 124.157 286.290,124.484 285.720,124.297 284.931 C 124.132 284.233,124.110 284.232,123.812 284.917 M175.600 285.800 C 175.600 286.396,175.772 286.741,176.000 286.600 C 176.220 286.464,176.400 286.104,176.400 285.800 C 176.400 285.496,176.220 285.136,176.000 285.000 C 175.772 284.859,175.600 285.204,175.600 285.800 M124.400 287.800 C 124.400 288.130,124.580 288.400,124.800 288.400 C 125.020 288.400,125.200 288.130,125.200 287.800 C 125.200 287.470,125.020 287.200,124.800 287.200 C 124.580 287.200,124.400 287.470,124.400 287.800 M174.800 288.424 C 174.800 288.877,174.980 289.136,175.200 289.000 C 175.420 288.864,175.600 288.493,175.600 288.176 C 175.600 287.859,175.420 287.600,175.200 287.600 C 174.980 287.600,174.800 287.971,174.800 288.424 M125.200 290.000 C 125.200 290.440,125.380 290.800,125.600 290.800 C 125.820 290.800,126.000 290.440,126.000 290.000 C 126.000 289.560,125.820 289.200,125.600 289.200 C 125.380 289.200,125.200 289.560,125.200 290.000 M165.700 300.998 C 164.957 301.842,165.094 302.073,166.000 301.507 C 166.440 301.232,166.800 300.871,166.800 300.704 C 166.800 300.227,166.249 300.375,165.700 300.998 M138.800 304.000 C 138.800 304.220,139.070 304.400,139.400 304.400 C 139.730 304.400,140.000 304.220,140.000 304.000 C 140.000 303.780,139.730 303.600,139.400 303.600 C 139.070 303.600,138.800 303.780,138.800 304.000 M143.000 305.600 C 143.136 305.820,143.507 306.000,143.824 306.000 C 144.141 306.000,144.400 305.820,144.400 305.600 C 144.400 305.380,144.029 305.200,143.576 305.200 C 143.123 305.200,142.864 305.380,143.000 305.600 M155.600 305.600 C 155.600 305.820,156.039 306.000,156.576 306.000 C 157.113 306.000,157.664 305.820,157.800 305.600 C 157.944 305.367,157.537 305.200,156.824 305.200 C 156.151 305.200,155.600 305.380,155.600 305.600 M146.200 306.400 C 146.336 306.620,148.046 306.800,150.000 306.800 C 151.954 306.800,153.664 306.620,153.800 306.400 C 153.959 306.143,152.596 306.000,150.000 306.000 C 147.404 306.000,146.041 306.143,146.200 306.400 " stroke="none" fill="#ee828b" fill-rule="evenodd"></path><path id="path3" d="M156.459 183.442 C 155.984 183.980,156.101 184.038,157.428 183.927 C 158.259 183.857,159.012 183.575,159.102 183.300 C 159.341 182.573,157.123 182.692,156.459 183.442 M257.298 183.300 C 257.391 183.585,258.223 183.829,259.231 183.868 C 260.204 183.905,260.685 183.847,260.300 183.738 C 259.915 183.630,259.600 183.375,259.600 183.171 C 259.600 182.967,259.045 182.800,258.367 182.800 C 257.559 182.800,257.190 182.973,257.298 183.300 M152.800 184.000 C 152.800 184.220,152.350 184.400,151.800 184.400 C 151.250 184.400,150.800 184.580,150.800 184.800 C 150.800 185.020,150.350 185.200,149.800 185.200 C 149.250 185.200,148.800 185.380,148.800 185.600 C 148.800 185.820,148.369 186.000,147.843 186.000 C 147.316 186.000,146.782 186.270,146.655 186.600 C 146.400 187.266,147.010 187.430,147.400 186.800 C 147.536 186.580,148.087 186.400,148.624 186.400 C 149.161 186.400,149.600 186.220,149.600 186.000 C 149.600 185.780,150.039 185.600,150.576 185.600 C 151.113 185.600,151.664 185.420,151.800 185.200 C 151.936 184.980,152.465 184.800,152.975 184.800 C 153.485 184.800,154.126 184.530,154.400 184.200 C 154.821 183.693,154.736 183.600,153.849 183.600 C 153.272 183.600,152.800 183.780,152.800 184.000 M261.600 183.971 C 261.600 184.450,263.903 185.600,264.861 185.600 C 265.268 185.600,265.600 185.780,265.600 186.000 C 265.600 186.220,265.945 186.400,266.367 186.400 C 266.788 186.400,267.204 186.612,267.290 186.871 C 267.377 187.130,267.662 187.209,267.924 187.047 C 268.735 186.546,268.450 186.000,267.376 186.000 C 266.796 186.000,266.460 185.827,266.600 185.600 C 266.741 185.372,266.399 185.200,265.807 185.200 C 265.235 185.200,264.380 184.840,263.908 184.400 C 263.025 183.577,261.600 183.312,261.600 183.971 M144.309 187.765 C 144.146 188.617,144.210 188.675,144.862 188.268 C 145.727 187.728,145.844 186.800,145.047 186.800 C 144.742 186.800,144.410 187.234,144.309 187.765 M268.832 187.038 C 268.799 187.492,270.060 188.800,270.531 188.800 C 270.679 188.800,270.800 188.530,270.800 188.200 C 270.800 187.870,270.455 187.600,270.033 187.600 C 269.612 187.600,269.176 187.375,269.065 187.100 C 268.948 186.811,268.850 186.785,268.832 187.038 M140.800 189.200 C 140.483 189.640,139.987 190.000,139.698 190.000 C 139.410 190.000,138.543 190.630,137.773 191.400 C 137.003 192.170,136.574 192.800,136.820 192.800 C 137.377 192.800,142.400 189.109,142.400 188.700 C 142.400 188.097,141.361 188.422,140.800 189.200 M271.200 188.754 C 271.200 188.956,272.097 189.994,273.194 191.061 C 274.290 192.127,275.190 193.191,275.194 193.425 C 275.203 194.045,277.543 196.190,277.862 195.871 C 278.011 195.722,277.923 195.600,277.667 195.600 C 277.410 195.600,277.200 195.327,277.200 194.994 C 277.200 194.660,275.850 193.037,274.200 191.387 C 272.550 189.737,271.200 188.552,271.200 188.754 M135.418 194.618 C 133.983 196.054,134.145 196.394,135.600 195.000 C 136.260 194.368,136.800 193.794,136.800 193.725 C 136.800 193.396,136.348 193.688,135.418 194.618 M132.100 197.016 C 131.385 197.765,130.800 198.637,130.800 198.955 C 130.800 199.273,130.575 199.624,130.300 199.735 C 129.953 199.875,129.943 199.946,130.269 199.968 C 130.855 200.008,133.600 196.844,133.600 196.128 C 133.600 195.439,133.613 195.431,132.100 197.016 M277.856 197.478 C 277.405 197.928,277.581 198.400,278.200 198.400 C 278.530 198.400,278.800 198.231,278.800 198.024 C 278.800 197.519,278.175 197.158,277.856 197.478 M278.400 199.789 C 278.400 200.099,278.580 200.464,278.800 200.600 C 279.020 200.736,279.200 201.366,279.200 202.000 C 279.200 202.634,279.357 203.250,279.550 203.369 C 280.633 204.039,280.645 214.648,279.563 215.780 C 279.363 215.989,279.200 216.628,279.200 217.200 C 279.200 217.772,278.975 218.467,278.700 218.744 C 278.299 219.148,278.339 219.195,278.900 218.981 C 279.285 218.834,279.600 218.374,279.600 217.957 C 279.600 217.541,279.780 217.200,280.000 217.200 C 280.220 217.200,280.400 216.390,280.400 215.400 C 280.400 214.410,280.580 213.600,280.800 213.600 C 281.042 213.600,281.200 211.867,281.200 209.200 C 281.200 206.533,281.042 204.800,280.800 204.800 C 280.580 204.800,280.400 204.170,280.400 203.400 C 280.400 202.630,280.220 202.000,280.000 202.000 C 279.780 202.000,279.600 201.479,279.600 200.843 C 279.600 200.183,279.342 199.587,279.000 199.455 C 278.642 199.318,278.400 199.452,278.400 199.789 M129.200 201.033 C 129.200 201.382,129.414 201.595,129.675 201.508 C 130.417 201.261,130.540 200.400,129.833 200.400 C 129.485 200.400,129.200 200.685,129.200 201.033 M128.461 203.947 C 127.988 204.358,127.600 204.988,127.600 205.347 C 127.600 205.706,127.420 206.000,127.200 206.000 C 126.980 206.000,126.800 206.450,126.800 207.000 C 126.800 207.550,126.620 208.000,126.400 208.000 C 126.180 208.000,126.000 208.180,126.000 208.400 C 126.000 208.620,126.270 208.800,126.600 208.800 C 126.973 208.800,127.200 208.422,127.200 207.800 C 127.200 207.250,127.380 206.800,127.600 206.800 C 127.820 206.800,128.000 206.513,128.000 206.162 C 128.000 205.811,128.372 205.001,128.827 204.362 C 129.785 203.017,129.676 202.894,128.461 203.947 M125.700 210.223 C 125.425 210.522,125.200 211.134,125.200 211.583 C 125.200 212.032,125.020 212.400,124.800 212.400 C 124.580 212.400,124.400 212.670,124.400 213.000 C 124.400 213.330,124.670 213.600,125.000 213.600 C 125.390 213.600,125.600 213.209,125.600 212.480 C 125.600 211.864,125.800 211.160,126.045 210.915 C 126.290 210.670,126.425 210.292,126.345 210.074 C 126.263 209.849,125.984 209.913,125.700 210.223 M124.470 215.300 C 124.431 215.905,124.220 216.400,124.000 216.400 C 123.736 216.400,123.600 228.075,123.600 250.624 C 123.600 271.207,123.746 284.757,123.966 284.621 C 124.167 284.497,124.435 284.621,124.561 284.898 C 124.687 285.174,124.679 284.590,124.542 283.600 C 124.055 280.069,123.934 220.691,124.411 219.200 C 124.657 218.430,124.787 216.990,124.699 216.000 C 124.612 215.010,124.508 214.695,124.470 215.300 M277.677 220.430 C 277.755 220.667,277.991 220.860,278.200 220.860 C 278.409 220.860,278.645 220.667,278.723 220.430 C 278.802 220.194,278.567 220.000,278.200 220.000 C 277.833 220.000,277.598 220.194,277.677 220.430 M276.800 223.310 C 276.800 223.591,275.455 225.156,273.812 226.788 C 272.168 228.421,270.899 229.833,270.992 229.925 C 271.085 230.018,272.058 229.173,273.154 228.047 C 274.251 226.921,275.353 226.000,275.603 226.000 C 276.262 226.000,277.200 224.960,277.200 224.229 C 277.200 223.883,277.380 223.600,277.600 223.600 C 277.820 223.600,278.000 223.420,278.000 223.200 C 278.000 222.980,277.730 222.800,277.400 222.800 C 277.070 222.800,276.800 223.030,276.800 223.310 M269.831 230.749 C 269.713 230.941,268.622 231.585,267.408 232.179 C 265.405 233.158,264.570 234.000,265.600 234.000 C 265.820 234.000,266.000 233.820,266.000 233.600 C 266.000 233.380,266.360 233.200,266.800 233.200 C 267.240 233.200,267.600 233.020,267.600 232.800 C 267.600 232.580,267.960 232.400,268.400 232.400 C 268.840 232.400,269.200 232.220,269.200 232.000 C 269.200 231.780,269.560 231.600,270.000 231.600 C 270.444 231.600,270.800 231.333,270.800 231.000 C 270.800 230.348,270.179 230.187,269.831 230.749 M261.867 233.867 C 261.418 234.315,261.569 234.800,262.157 234.800 C 262.464 234.800,262.818 234.530,262.945 234.200 C 263.175 233.599,262.381 233.353,261.867 233.867 M257.467 234.667 C 256.923 235.211,257.229 235.600,258.200 235.600 C 258.750 235.600,259.200 235.433,259.200 235.229 C 259.200 235.025,259.515 234.776,259.900 234.676 C 260.285 234.575,259.955 234.472,259.167 234.446 C 258.378 234.421,257.613 234.520,257.467 234.667 M182.849 235.802 C 181.732 236.416,176.800 241.227,176.800 241.703 C 176.800 242.079,178.344 241.313,179.092 240.565 C 179.371 240.286,179.600 239.774,179.600 239.429 C 179.600 239.083,179.894 238.800,180.253 238.800 C 180.910 238.800,182.400 237.370,182.400 236.739 C 182.400 236.552,182.850 236.400,183.400 236.400 C 183.950 236.400,184.400 236.233,184.400 236.028 C 184.400 235.823,184.805 235.578,185.300 235.482 C 185.971 235.353,185.895 235.305,185.000 235.294 C 184.340 235.285,183.372 235.514,182.849 235.802 M176.500 242.695 C 176.109 242.829,176.000 247.214,176.000 262.810 C 176.000 275.674,175.858 282.841,175.600 283.000 C 175.380 283.136,175.200 283.856,175.200 284.600 C 175.200 285.344,175.020 286.064,174.800 286.200 C 174.134 286.612,174.314 288.008,175.000 287.745 C 175.373 287.602,175.600 286.992,175.600 286.134 C 175.600 285.315,175.763 284.853,176.000 285.000 C 176.265 285.164,176.400 278.282,176.400 264.657 C 176.400 249.879,176.526 244.025,176.846 243.918 C 177.091 243.836,177.226 243.489,177.146 243.146 C 177.066 242.803,176.775 242.600,176.500 242.695 M124.400 286.370 C 124.400 286.779,124.670 287.218,125.000 287.345 C 125.401 287.498,125.600 287.328,125.600 286.830 C 125.600 286.421,125.330 285.982,125.000 285.855 C 124.599 285.702,124.400 285.872,124.400 286.370 M125.200 288.724 C 125.200 288.939,125.485 289.224,125.833 289.357 C 126.223 289.507,126.406 289.418,126.308 289.125 C 126.109 288.527,125.200 288.198,125.200 288.724 M126.060 290.780 C 126.148 291.044,126.351 291.247,126.510 291.230 C 126.988 291.181,126.896 290.632,126.380 290.460 C 126.116 290.372,125.972 290.516,126.060 290.780 M172.278 293.314 C 169.784 296.711,165.833 300.403,163.400 301.609 C 162.300 302.154,161.340 302.735,161.267 302.900 C 161.193 303.065,160.906 303.200,160.628 303.200 C 159.852 303.200,157.600 304.412,157.600 304.829 C 157.600 305.033,157.870 305.200,158.200 305.200 C 158.530 305.200,158.800 305.020,158.800 304.800 C 158.800 304.580,159.160 304.400,159.600 304.400 C 160.040 304.400,160.400 304.220,160.400 304.000 C 160.400 303.780,160.760 303.600,161.200 303.600 C 161.640 303.600,162.000 303.420,162.000 303.200 C 162.000 302.980,162.360 302.800,162.800 302.800 C 163.240 302.800,163.600 302.620,163.600 302.400 C 163.600 302.180,163.920 302.000,164.312 302.000 C 164.703 302.000,165.283 301.640,165.600 301.200 C 165.917 300.760,166.411 300.400,166.697 300.400 C 167.332 300.400,171.600 296.195,171.600 295.569 C 171.600 295.323,172.140 294.617,172.800 294.000 C 173.460 293.383,174.000 292.591,174.000 292.240 C 174.000 291.888,174.180 291.600,174.400 291.600 C 174.620 291.600,174.800 291.420,174.800 291.200 C 174.800 290.288,174.020 290.942,172.278 293.314 M126.800 292.600 C 126.800 292.933,127.156 293.200,127.600 293.200 C 128.133 293.200,128.400 293.467,128.400 294.000 C 128.400 294.444,128.667 294.800,129.000 294.800 C 129.891 294.800,129.733 294.277,128.478 293.075 C 127.203 291.853,126.800 291.739,126.800 292.600 M129.200 296.411 C 129.200 296.945,132.655 300.400,133.189 300.400 C 133.973 300.400,133.590 299.760,131.686 297.885 C 129.759 295.987,129.200 295.655,129.200 296.411 M134.800 300.367 C 134.800 301.049,136.658 302.800,137.382 302.800 C 137.722 302.800,138.000 302.980,138.000 303.200 C 138.000 303.420,138.450 303.600,139.000 303.600 C 139.550 303.600,140.000 303.780,140.000 304.000 C 140.000 304.220,140.180 304.400,140.400 304.400 C 141.355 304.400,140.665 303.556,139.100 302.809 C 138.165 302.363,136.815 301.526,136.100 300.948 C 135.385 300.370,134.800 300.109,134.800 300.367 M141.844 304.571 C 142.128 305.310,143.345 305.435,143.100 304.700 C 143.009 304.425,142.634 304.142,142.268 304.071 C 141.804 303.981,141.676 304.132,141.844 304.571 M144.245 305.372 C 144.530 306.115,146.145 306.239,145.902 305.500 C 145.811 305.225,145.347 304.943,144.871 304.872 C 144.222 304.777,144.065 304.903,144.245 305.372 M154.267 305.067 C 153.760 305.574,154.003 306.000,154.800 306.000 C 155.240 306.000,155.600 305.833,155.600 305.629 C 155.600 305.425,155.915 305.176,156.300 305.076 C 156.685 304.975,156.445 304.872,155.767 304.846 C 155.088 304.821,154.413 304.920,154.267 305.067 M148.500 305.891 C 149.325 305.978,150.675 305.978,151.500 305.891 C 152.325 305.805,151.650 305.734,150.000 305.734 C 148.350 305.734,147.675 305.805,148.500 305.891 " stroke="none" fill="#647090" fill-rule="evenodd"></path><path id="path4" d="M160.800 183.600 C 160.800 183.864,176.933 184.000,208.400 184.000 C 239.867 184.000,256.000 183.864,256.000 183.600 C 256.000 183.336,239.867 183.200,208.400 183.200 C 176.933 183.200,160.800 183.336,160.800 183.600 M155.200 184.382 C 155.200 184.612,155.950 184.800,156.867 184.800 C 158.832 184.800,158.776 184.610,156.700 184.235 C 155.750 184.063,155.200 184.117,155.200 184.382 M259.200 184.400 C 258.260 184.701,258.279 184.723,259.524 184.760 C 260.313 184.784,260.747 184.638,260.600 184.400 C 260.464 184.180,260.318 184.018,260.276 184.040 C 260.234 184.062,259.750 184.224,259.200 184.400 M276.471 196.122 C 277.217 196.874,278.000 197.017,278.000 196.400 C 278.000 196.180,277.835 196.000,277.633 196.000 C 277.431 196.000,276.936 195.875,276.533 195.722 C 275.846 195.462,275.843 195.488,276.471 196.122 M125.293 216.400 C 125.293 217.170,125.375 217.485,125.476 217.100 C 125.576 216.715,125.576 216.085,125.476 215.700 C 125.375 215.315,125.293 215.630,125.293 216.400 M263.600 233.367 C 263.600 233.715,263.885 234.000,264.233 234.000 C 264.940 234.000,264.817 233.139,264.075 232.892 C 263.814 232.805,263.600 233.018,263.600 233.367 M259.200 234.000 C 260.630 234.458,261.200 234.458,261.200 234.000 C 261.200 233.780,260.525 233.618,259.700 233.640 C 258.361 233.675,258.308 233.714,259.200 234.000 M175.293 244.400 C 175.293 245.170,175.375 245.485,175.476 245.100 C 175.576 244.715,175.576 244.085,175.476 243.700 C 175.375 243.315,175.293 243.630,175.293 244.400 M173.692 289.675 C 173.939 290.417,174.800 290.540,174.800 289.833 C 174.800 289.485,174.515 289.200,174.167 289.200 C 173.818 289.200,173.605 289.414,173.692 289.675 M141.200 303.600 C 141.200 304.101,141.624 304.101,142.400 303.600 C 142.885 303.286,142.828 303.211,142.100 303.206 C 141.605 303.203,141.200 303.380,141.200 303.600 M155.600 304.400 C 156.376 304.901,156.800 304.901,156.800 304.400 C 156.800 304.180,156.395 304.003,155.900 304.006 C 155.172 304.011,155.115 304.086,155.600 304.400 M149.500 305.288 C 150.147 305.600,150.653 305.600,151.300 305.288 C 152.090 304.907,151.980 304.854,150.400 304.854 C 148.820 304.854,148.710 304.907,149.500 305.288 " stroke="none" fill="#041c54" fill-rule="evenodd"></path></g></svg>