<svg id="Layer_1" data-name="Layer 1" xmlns="http://www.w3.org/2000/svg" viewBox="0 0 500 500"><defs><style>.cls-1{fill:#fcd32b;}.cls-2{fill:#efad0a;}.cls-3{fill:#e51c5a;}.cls-4{fill:none;stroke:#000;stroke-linecap:round;stroke-linejoin:round;stroke-width:15px;}</style></defs><title>flip-flops</title><path class="cls-1" d="M163.31,490.43a80.9,80.9,0,0,1-58.07-7.69c-11.5-6.22-24.36-16-33.71-31-21.32-34.28-15.88-74.27-14.69-107.32s-40.83-143-32-233C32.37,34.81,138.59-11.72,194.91,14.7c84.86,39.82-.06,263.33,11.33,322.66,14.69,76.46,14.56,99.68-2,124.17C193.62,477.17,179.9,486.31,163.31,490.43Z"/><path class="cls-2" d="M194.91,14.7c-15.71-7.36-35.3-9-55.54-6a77.33,77.33,0,0,1,19.54,6c84.86,39.82-.06,263.33,11.33,322.66,14.68,76.46,14.56,99.68-2,124.17-10.59,15.64-24.31,24.78-40.9,28.9l-1.11.25a79.58,79.58,0,0,0,37.11-.25c16.59-4.12,30.31-13.26,40.9-28.9,16.59-24.49,16.71-47.71,2-124.17C194.85,278,279.77,54.52,194.91,14.7Z"/><path class="cls-1" d="M336.69,490.43a80.9,80.9,0,0,0,58.07-7.69c11.5-6.22,24.36-16,33.71-31,21.32-34.28,15.88-74.27,14.69-107.32s40.83-143,32-233C467.63,34.81,361.41-11.72,305.09,14.7c-84.86,39.82.06,263.33-11.33,322.66-14.69,76.46-14.56,99.68,2,124.17C306.38,477.17,320.1,486.31,336.69,490.43Z"/><path class="cls-2" d="M475.15,111.4C468.43,43,382.94-1.45,324.63,8.7,377,16.58,433.73,56.17,439.15,111.4c8.84,90-33.17,200-32,233s6.63,73-14.69,107.32c-9.35,15-22.21,24.78-33.71,31a83.73,83.73,0,0,1-21,7.94,81,81,0,0,0,57-7.94c11.5-6.22,24.36-16,33.71-31,21.32-34.28,15.88-74.27,14.69-107.32S484,201.4,475.15,111.4Z"/><path class="cls-3" d="M209.62,172.94c-8-38.68-24.78-66.73-44.88-75a51.29,51.29,0,0,0-8-2.54V72.43a12.69,12.69,0,1,0-25.37,0v23a70.65,70.65,0,0,0-21.26,8.75C89,117.14,71,141,56.77,175.27c-29.79,71.58-.51,150.07.75,153.38a12.68,12.68,0,1,0,23.7-9c-.27-.72-27-72.25-1-134.6,19.08-45.85,43.52-65.06,63-65.72.27,0,.54,0,.81,0s.72,0,1.07,0a28.09,28.09,0,0,1,10,2.08c20.19,8.34,52.49,83.4,20.83,184.71a12.69,12.69,0,0,0,24.22,7.57C215.09,265.68,218.47,215.72,209.62,172.94Z"/><path class="cls-3" d="M290.38,172.94c8-38.68,24.78-66.73,44.88-75a51.29,51.29,0,0,1,8-2.54V72.43a12.69,12.69,0,1,1,25.37,0v23a70.65,70.65,0,0,1,21.26,8.75c21.13,12.91,39.07,36.81,53.31,71,29.79,71.58.51,150.07-.75,153.38a12.68,12.68,0,1,1-23.7-9c.27-.72,27-72.25,1-134.6-19.08-45.85-43.52-65.06-63-65.72-.27,0-.54,0-.81,0s-.72,0-1.07,0a28.09,28.09,0,0,0-10,2.08c-20.19,8.34-52.49,83.4-20.83,184.71a12.69,12.69,0,0,1-24.22,7.57C284.91,265.68,281.53,215.72,290.38,172.94Z"/><path class="cls-4" d="M163.31,490.43a80.9,80.9,0,0,1-58.07-7.69c-11.5-6.22-24.36-16-33.71-31-21.32-34.28-15.88-74.27-14.69-107.32s-40.83-143-32-233C32.37,34.81,138.59-11.72,194.91,14.7c84.86,39.82-.06,263.33,11.33,322.66,14.69,76.46,14.56,99.68-2,124.17C193.62,477.17,179.9,486.31,163.31,490.43Z"/><path class="cls-4" d="M209.62,172.94c-8-38.68-24.78-66.73-44.88-75a51.29,51.29,0,0,0-8-2.54V72.43a12.69,12.69,0,1,0-25.37,0v23a70.65,70.65,0,0,0-21.26,8.75C89,117.14,71,141,56.77,175.27c-29.79,71.58-.51,150.07.75,153.38a12.68,12.68,0,1,0,23.7-9c-.27-.72-27-72.25-1-134.6,19.08-45.85,43.52-65.06,63-65.72.27,0,.54,0,.81,0s.72,0,1.07,0a28.09,28.09,0,0,1,10,2.08c20.19,8.34,52.49,83.4,20.83,184.71a12.69,12.69,0,0,0,24.22,7.57C215.09,265.68,218.47,215.72,209.62,172.94Z"/><path class="cls-4" d="M336.69,490.43a80.9,80.9,0,0,0,58.07-7.69c11.5-6.22,24.36-16,33.71-31,21.32-34.28,15.88-74.27,14.69-107.32s40.83-143,32-233C467.63,34.81,361.41-11.72,305.09,14.7c-84.86,39.82.06,263.33-11.33,322.66-14.69,76.46-14.56,99.68,2,124.17C306.38,477.17,320.1,486.31,336.69,490.43Z"/><path class="cls-4" d="M290.38,172.94c8-38.68,24.78-66.73,44.88-75a51.29,51.29,0,0,1,8-2.54V72.43a12.69,12.69,0,1,1,25.37,0v23a70.65,70.65,0,0,1,21.26,8.75c21.13,12.91,39.07,36.81,53.31,71,29.79,71.58.51,150.07-.75,153.38a12.68,12.68,0,1,1-23.7-9c.27-.72,27-72.25,1-134.6-19.08-45.85-43.52-65.06-63-65.72-.27,0-.54,0-.81,0s-.72,0-1.07,0a28.09,28.09,0,0,0-10,2.08c-20.19,8.34-52.49,83.4-20.83,184.71a12.69,12.69,0,0,1-24.22,7.57C284.91,265.68,281.53,215.72,290.38,172.94Z"/></svg>