<svg xmlns="http://www.w3.org/2000/svg" data-name="Layer 1" viewBox="0 0 32 32"><polygon fill="#37b678" points="9.5 26.5 .5 23.5 .5 .5 9.5 3.5 9.5 26.5"/><polygon fill="#00a653" points="1.5 23.5 1.5 .833 .5 .5 .5 23.5 9.5 26.5 9.5 26.167 1.5 23.5"/><polygon fill="#37b678" points="27.5 26.5 18.5 23.5 18.5 .5 27.5 3.5 27.5 26.5"/><polygon fill="#00a653" points="9.5 26.5 18.5 23.5 18.5 .5 9.5 3.5 9.5 26.5"/><path fill="#e5303e" d="M31.48374,19.5252A10.6388,10.6388,0,0,1,30.399,23.49845a27.32365,27.32365,0,0,1-4.06079,5.3896c-.2083.24936-2.41324,2.78667-2.59545,2.60239-3.00731-3.04134-6.5019-6.34826-7.502-10.68244a7.59424,7.59424,0,0,1,6.45764-9.24263c3.81083-.50376,7.84679,1.949,8.63983,5.80524A8.21415,8.21415,0,0,1,31.48374,19.5252Z"/><path fill="#b72732" d="M17.24078,20.808a7.59422,7.59422,0,0,1,6.45764-9.24261c.1745-.02307.34973-.03326.52484-.04407a7.70166,7.70166,0,0,0-1.52484.04407A7.59422,7.59422,0,0,0,16.24078,20.808c1.00012,4.33417,4.49469,7.64111,7.502,10.68243.05353.05414.28387-.12988.58478-.41864C21.4209,28.14453,18.19525,24.94446,17.24078,20.808Z"/><circle cx="23.771" cy="19" r="5.5" fill="#fff"/><path fill="#e0e0e2" d="M19.2713,19a5.49864,5.49864,0,0,1,5-5.47479c-.16492-.01489-.33118-.02521-.5-.02521a5.5,5.5,0,1,0,0,11c.16882,0,.33508-.01031.5-.02521A5.49868,5.49868,0,0,1,19.2713,19Z"/><path fill="#3c3b41" d="M26.02148 19.5h-1.25a.5.5 0 0 1 0-1h1.25a.5.5 0 1 1 0 1zM23.77148 18.5a.49971.49971 0 0 1-.5-.5V16.25a.5.5 0 0 1 1 0V18A.49971.49971 0 0 1 23.77148 18.5z"/><circle cx="23.771" cy="19" r="1" fill="#e5303e" transform="rotate(-37.84 23.771 19)"/></svg>