<svg xmlns="http://www.w3.org/2000/svg" enable-background="new 0 0 25 25" viewBox="0 0 25 25"><path fill="#DE002A" d="M4.75,17.504c-0.304,0-0.578-0.183-0.693-0.464L0.271,7.847l1.387-0.571l3.066,7.446l2.575-6.735C7.411,7.696,7.689,7.504,8,7.504h16.5v1.5H8.516l-3.065,8.018C5.341,17.31,5.067,17.5,4.76,17.504C4.756,17.504,4.753,17.504,4.75,17.504z"/><path fill="#583689" d="M11.276,17.703L9.75,13.126l-1.526,4.577l-1.423-0.475l2.237-6.711c0.102-0.306,0.389-0.513,0.711-0.513s0.609,0.207,0.711,0.513l2.237,6.711L11.276,17.703z"/><rect width="4.001" height="1.5" x="7.692" y="14.709" fill="#583689"/><path fill="#583689" d="M17.75 17.504c-.246 0-.482-.122-.624-.334L14.5 13.231v4.273H13v-6.75c0-.331.216-.622.533-.718.315-.097.659.026.841.302L17 14.277v-4.273h1.5v6.75c0 .331-.216.622-.533.718C17.896 17.494 17.822 17.504 17.75 17.504zM22.25 17.504h-1c-1.241 0-2.25-1.009-2.25-2.25v-.75h1.5v.75c0 .414.336.75.75.75h1c.414 0 .75-.336.75-.75s-.336-.75-.75-.75h-1c-1.241 0-2.25-1.009-2.25-2.25s1.009-2.25 2.25-2.25h1c1.241 0 2.25 1.009 2.25 2.25v.75H23v-.75c0-.414-.336-.75-.75-.75h-1c-.414 0-.75.336-.75.75s.336.75.75.75h1c1.241 0 2.25 1.009 2.25 2.25S23.491 17.504 22.25 17.504z"/></svg>