<svg data-icon-name="notification-bell" data-style="line" icon_origin_id="20860" viewBox="0 0 24 24" xmlns="http://www.w3.org/2000/svg" data-name="Line Color" id="notification-bell" class="icon line" width="48" height="48"><path style="fill: none; stroke: rgb(255, 255, 255); stroke-linecap: round; stroke-linejoin: round; stroke-width: 2px;" d="M15,18H9a3,3,0,0,0,3,3h0A3,3,0,0,0,15,18Z" id="secondary"></path><path style="fill: none; stroke: rgb(255, 255, 255); stroke-linecap: round; stroke-linejoin: round; stroke-width: 2px;" d="M19.38,14.38a2.12,2.12,0,0,1,.62,1.5h0A2.12,2.12,0,0,1,17.88,18H6.12A2.12,2.12,0,0,1,4,15.88H4a2.12,2.12,0,0,1,.62-1.5L6,13V9a6,6,0,0,1,6-6h0a6,6,0,0,1,6,6v4Z" id="primary"></path></svg>