<svg width="21" height="20" viewBox="0 0 21 20" fill="none" xmlns="http://www.w3.org/2000/svg">
<path d="M10.0142 -0.00109863C4.49116 -0.00109863 0.0141602 4.47589 0.0141602 9.99889C0.0141602 15.5219 4.49116 19.9989 10.0142 19.9989C15.5372 19.9989 20.0142 15.5219 20.0142 9.99889C20.0142 4.47589 15.5372 -0.00109863 10.0142 -0.00109863ZM14.0142 6.99889C14.2702 6.99889 14.5372 7.0849 14.7332 7.2799C15.1232 7.6709 15.1232 8.32688 14.7332 8.71788L10.9832 12.4369C9.83215 13.5869 8.07317 13.4149 7.17017 12.0609L6.17017 10.5609C5.86417 10.1019 5.99215 9.46189 6.45215 9.15489C6.91115 8.84889 7.55115 8.97688 7.85815 9.43688L8.85815 10.9369C9.06015 11.2399 9.31917 11.2879 9.57617 11.0299L13.2952 7.2799C13.4912 7.0849 13.7582 6.99889 14.0142 6.99889Z" fill="white"/>
</svg>
