<svg data-icon-name="clipboard" data-style="line" icon_origin_id="15680" viewBox="0 0 24 24" xmlns="http://www.w3.org/2000/svg" data-name="Line Color" id="clipboard" class="icon line" width="48" height="48"><path style="fill: none; stroke: currentColor; stroke-linecap: round; stroke-linejoin: round; stroke-width: 1px;" d="M15,5h3a1,1,0,0,1,1,1V20a1,1,0,0,1-1,1H6a1,1,0,0,1-1-1V6A1,1,0,0,1,6,5H9" id="primary"></path><path style="fill: none; stroke: currentColor; stroke-linecap: round; stroke-linejoin: round; stroke-width: 1px;" d="M15,4a1,1,0,0,0-1-1H10A1,1,0,0,0,9,4V7h6ZM9,17h6M9,13h6" id="secondary"></path></svg>