<svg width="21" height="19" viewBox="0 0 21 19" fill="none" xmlns="http://www.w3.org/2000/svg">
<path d="M10.0142 -0.00109783C8.35365 -9.78272e-05 7.10385 0.866902 6.10795 2.6239L1.13925 11.7179C0.370247 13.0589 0.00714699 14.0019 0.014247 14.9989C0.030147 17.2309 1.82465 18.9909 4.01425 18.9989H16.0143C18.2066 18.9989 20.006 17.2649 20.0143 14.9989C20.0179 14.0049 19.6266 13.0019 18.8579 11.7179L13.9517 2.68689C13.0309 0.92789 11.6975 -0.00209783 10.0142 -0.00109783ZM10.0142 5.9989C10.5665 5.9989 11.0142 6.4469 11.0142 6.9989V10.9989C11.0142 11.5509 10.5665 11.9989 10.0142 11.9989C9.46195 11.9989 9.01425 11.5509 9.01425 10.9989V6.9989C9.01425 6.4469 9.46195 5.9989 10.0142 5.9989ZM10.0142 12.9989C10.5665 12.9989 11.0142 13.4469 11.0142 13.9989C11.0142 14.5509 10.5665 14.9989 10.0142 14.9989C9.46195 14.9989 9.01425 14.5509 9.01425 13.9989C9.01425 13.4469 9.46195 12.9989 10.0142 12.9989Z" fill="white"/>
</svg>
