<svg width="80" height="74" viewBox="0 0 80 74" fill="none" xmlns="http://www.w3.org/2000/svg">
<path d="M39.3529 8.91109L40 9.67104L40.6471 8.91109C44.8511 3.97435 51.2974 0.85 58 0.85C69.8506 0.85 79.15 10.1494 79.15 22C79.15 29.2808 75.8832 35.9538 69.9671 43.1868C64.0419 50.4308 55.5485 58.1326 45.2334 67.4864L45.229 67.4903L45.2278 67.4914L39.9978 72.2525L34.7717 67.5309L34.7698 67.5293L34.6584 67.428C24.3922 58.0987 15.9376 50.4157 10.0331 43.1921C4.11676 35.9538 0.85 29.2808 0.85 22C0.85 10.1494 10.1494 0.85 22 0.85C28.7026 0.85 35.1489 3.97435 39.3529 8.91109ZM16.0142 40.5227C21.5743 47.0195 29.5157 54.2157 39.0139 62.8159L39.399 63.201L40 63.8021L40.601 63.201L40.9861 62.8159C50.4843 54.2157 58.4257 47.0195 63.9858 40.5227C69.5406 34.0319 72.85 28.0937 72.85 22C72.85 13.5306 66.4694 7.15 58 7.15C51.7189 7.15 45.5806 11.0453 43.1876 16.59H36.8487C34.4206 11.048 28.2841 7.15 22 7.15C13.5306 7.15 7.15 13.5306 7.15 22C7.15 28.0937 10.4593 34.0319 16.0142 40.5227Z" fill="currentColor" stroke="currentColor" stroke-width="0"/>
</svg>
